<svg width="42" height="25" viewBox="0 0 42 25" fill="none" xmlns="http://www.w3.org/2000/svg">
<path fill-rule="evenodd" clip-rule="evenodd" d="M4.55259 2.97787L4.55279 2.97796L6.49551 3.86281L37.5086 15.9449C37.6437 15.9888 37.7778 16.0408 37.9102 16.1011C39.804 16.9637 40.64 19.1983 39.7774 21.0921C38.9148 22.9859 36.6805 23.8219 34.7867 22.9595L34.7866 22.9597L34.7833 22.958C34.6605 22.9019 34.5421 22.8401 34.4284 22.7729L3.39432 6.59082L2.9936 6.40831L2.99071 6.40699C2.04378 5.97569 1.62579 4.85842 2.05709 3.91149C2.48839 2.96456 3.60566 2.54657 4.55259 2.97787Z" fill="#D9D9D9"/>
<circle cx="36.3477" cy="19.5307" r="2.82606" transform="rotate(-65.512 36.3477 19.5307)" fill="#C4C4C4"/>
</svg>
