<svg width="43" height="10" viewBox="0 0 43 10" fill="none" xmlns="http://www.w3.org/2000/svg">
<path fill-rule="evenodd" clip-rule="evenodd" d="M3.03217 7.70244L3.0324 7.70244L5.16621 7.63925L38.4382 8.51455C38.5797 8.52641 38.7235 8.5304 38.8689 8.52609C40.949 8.4645 42.5854 6.72828 42.5238 4.64814C42.4622 2.56811 40.7261 0.931819 38.6461 0.993238L38.6461 0.993044L38.6425 0.993348C38.5075 0.997462 38.3744 1.00863 38.2435 1.02647L3.36395 3.92289L2.92389 3.93592L2.92064 3.93602C1.88057 3.96681 1.0624 4.83492 1.0932 5.87499C1.124 6.91506 1.9921 7.73324 3.03217 7.70244Z" fill="#D9D9D9"/>
<circle cx="2.82606" cy="2.82606" r="2.82606" transform="matrix(0.0295986 0.999562 0.999562 -0.0295986 35.8486 2.01807)" fill="#C4C4C4"/>
</svg>
