<?xml version="1.0" encoding="utf-8"?>
<!-- Generator: Adobe Illustrator 22.0.2, SVG Export Plug-In . SVG Version: 6.00 Build 0)  -->
<svg version="1.1" id="Layer_1" xmlns="http://www.w3.org/2000/svg" xmlns:xlink="http://www.w3.org/1999/xlink" x="0px" y="0px"
	 viewBox="0 0 42 42" style="enable-background:new 0 0 42 42;" xml:space="preserve">
<style type="text/css">
	.st0{fill:#D3D3D3;}
</style>
<path class="st0" d="M21.4,40.8C10.6,40.8,1.8,32,1.8,21.1S10.6,1.5,21.4,1.5c10.8,0,19.6,8.8,19.6,19.6S32.3,40.8,21.4,40.8
	 M21.4,2.8C11.3,2.8,3.1,11,3.1,21.1c0,10.1,8.2,18.4,18.4,18.4c10.1,0,18.4-8.2,18.4-18.4C39.8,11,31.6,2.8,21.4,2.8"/>
<path class="st0" d="M21.4,23.3c0.4,0,0.8-0.3,0.8-0.8V9.9c0-0.4-0.3-0.8-0.8-0.8c-0.4,0-0.8,0.3-0.8,0.8v12.6
	C20.6,22.9,21,23.3,21.4,23.3"/>
<path class="st0" d="M26.7,11.6c-0.3-0.2-0.6-0.3-0.9-0.4c-0.4-0.2-0.8,0-1,0.4c-0.2,0.4,0,0.9,0.4,1c0.3,0.1,0.5,0.2,0.8,0.4
	c2.7,1.4,4.6,4,5.2,6.9c0.6,3-0.2,6-2.1,8.4c-1.9,2.3-4.8,3.7-7.8,3.7c-3,0-5.9-1.4-7.8-3.7c-1.9-2.3-2.7-5.4-2.1-8.4
	c0.6-3,2.5-5.5,5.2-6.9l0.1,0c0.2-0.1,0.5-0.2,0.7-0.3c0.4-0.2,0.6-0.6,0.4-1c-0.2-0.4-0.6-0.6-1-0.4c-0.3,0.1-0.5,0.2-0.8,0.4
	l-0.1,0c-3.1,1.6-5.3,4.6-5.9,8c-0.7,3.4,0.2,7,2.4,9.7c2.2,2.7,5.5,4.3,9,4.3c3.5,0,6.8-1.6,9-4.3c2.2-2.7,3.1-6.3,2.4-9.7
	C31.9,16.1,29.7,13.2,26.7,11.6L26.7,11.6z"/>
</svg>
