<?xml version="1.0" encoding="utf-8"?>
<!-- Generator: Adobe Illustrator 22.0.2, SVG Export Plug-In . SVG Version: 6.00 Build 0)  -->
<svg version="1.1" id="Layer_1" xmlns="http://www.w3.org/2000/svg" xmlns:xlink="http://www.w3.org/1999/xlink" x="0px" y="0px"
	 viewBox="0 0 104 104" style="enable-background:new 0 0 104 104;" xml:space="preserve">
<style type="text/css">
	.st0{fill:#D3D3D3;}
</style>
<path class="st0" d="M45.3,34.4c0.2,0.1,0.5,0.2,0.7,0.2c0.8,0,1.5-0.7,1.5-1.6c0-0.7,0.2-1.3,0.6-1.8c0.6-0.7,1.4-1.1,2.4-1.1
	c1.2,0,2.3,0.6,2.9,1.7c0.3,0.5,0.5,1.2,0.6,2c0.1,1.6-0.3,2.7-1.4,3.6c-1.4,1.1-3.1,1.7-5.3,1.8c-1.5,0-3,0-5,0c-1.2,0-2.3,0-3.5,0
	c-1.2,0-2.4,0-3.5,0c-0.1,0-0.1,0-0.2,0l-12,0c-1,0-1.7,0.6-1.7,1.5c0,0.5,0.2,0.9,0.5,1.1c0.3,0.3,0.7,0.4,1.2,0.4l12.3,0l11,0
	c1.6,0,3.1-0.2,4.6-0.7c2.1-0.6,3.5-1.6,4.5-2.9c1.3-1.7,1.7-3.8,1.2-6.3c-0.6-3-3.2-5.1-6.2-5.1c-0.6,0-1.1,0.1-1.7,0.2
	c-2.6,0.7-4.4,2.9-4.4,5.6C44.5,33.7,45,34.2,45.3,34.4"/>
<path class="st0" d="M40.4,48.9c-1.7-0.9-3.7-1.4-6.1-1.4c-1.2,0-2.4,0-3.7,0c-1.1,0-6.7,0-6.7,0s-0.8,0-1,0c-0.7,0-1.2,0.4-1.5,1
	c-0.2,0.5-0.1,1,0.1,1.4c0.3,0.4,0.8,0.7,1.4,0.7l9,0c0.7,0,1.4,0,2,0l0.1,0c1,0,1.8,0.1,2.6,0.3c1.1,0.3,2.4,0.6,3.3,1.6
	c1.2,1.3,1.4,2.8,0.8,4.8c-0.4,1.4-1.7,2.3-3.1,2.3c-0.1,0-0.3,0-0.4,0c-1.7-0.2-2.7-1.3-2.7-2.9c0-0.4-0.1-0.8-0.4-1
	c-0.3-0.3-0.7-0.5-1.1-0.5c-0.8,0-1.5,0.7-1.5,1.5c0,0.7,0.1,1.5,0.4,2.2c0.9,2.3,3.1,3.8,5.7,3.8c1.9,0,3.6-0.8,4.8-2.2
	c1.1-1.3,1.6-3,1.6-5C44.2,52.4,43,50.2,40.4,48.9"/>
<path class="st0" d="M22.9,38.2c0,0,0.1,0,0.1,0c0,0,0,0,0.1,0c0,0,0,0,0.1,0l7.2,0c1.4,0,2.7,0,4.1,0c1.5,0,3-0.2,4.4-0.7
	c2.4-0.8,3.9-2.1,4.8-4c0.6-1.3,0.8-2.9,0.6-4.8c-0.4-3.2-2.9-5.6-6.1-5.7c-0.1,0-0.2,0-0.2,0c-2.6,0-5.5,1.7-6,5
	c0,0.2,0,0.5-0.1,0.8c0,0.5,0.1,0.9,0.4,1.3c0.3,0.3,0.6,0.4,1.1,0.5c0.8,0,1.5-0.7,1.5-1.6c0-0.7,0.2-1.2,0.6-1.7
	c0.6-0.7,1.4-1.1,2.4-1.1c1,0,2,0.5,2.6,1.2c0.5,0.6,0.8,1.4,0.8,2.4c0.2,2-0.5,3.4-2.1,4.3c-1.2,0.7-2.6,1.1-4.1,1.1
	c-0.8,0-1.6,0-2.3,0c-0.5,0-1.1,0-1.6,0c0,0-1.4,0-1.9,0c0,0-0.1,0-0.1,0l-6,0c-0.5,0-0.9,0.2-1.2,0.5c-0.3,0.3-0.4,0.7-0.4,1.1
	C21.4,37.6,22,38.2,22.9,38.2"/>
<path class="st0" d="M41.1,43.2l-17.9,0c-0.1,0-0.2,0-0.3,0c-0.8,0.1-1.3,0.7-1.3,1.5c0,0.7,0.6,1.4,1.3,1.5c0.1,0,0.2,0,0.4,0
	c0,0,17.9,0,17.9,0c0.1,0,0.1,0,0.2,0c0.8-0.1,1.4-0.7,1.4-1.5c0-0.8-0.6-1.4-1.4-1.5C41.3,43.2,41.2,43.2,41.1,43.2"/>
<path class="st0" d="M55.5,43.9c-0.4,0.4-0.6,0.9-0.6,1.5c0,1.2,0.9,2.1,2.1,2.1h0h0c0.5,0,1.1-0.2,1.5-0.6c0.4-0.4,0.6-0.9,0.6-1.5
	c0-1.1-1-2.1-2.1-2.1C56.4,43.3,55.9,43.5,55.5,43.9"/>
<path class="st0" d="M60.1,48.1c-0.5,0-1.1,0.2-1.5,0.6c-0.4,0.4-0.6,0.9-0.6,1.5c0,1.1,1,2.1,2.1,2.1h0h0c0.6,0,1.1-0.3,1.5-0.7
	c0.4-0.4,0.6-0.9,0.6-1.5C62.1,49.1,61.2,48.1,60.1,48.1"/>
<path class="st0" d="M50.8,53c-1.1,0-2.1,0.9-2.1,2.1c0,1.2,0.9,2.1,2,2.1h0c1.2,0,2.1-0.9,2.1-2c0-0.5-0.2-1.1-0.6-1.5
	C51.9,53.2,51.4,53,50.8,53"/>
<path class="st0" d="M49.8,50.3c0-0.6-0.2-1.1-0.6-1.5c-0.4-0.4-0.9-0.6-1.5-0.6c-1.1,0-2.1,0.9-2.1,2c0,1.2,0.9,2.1,2,2.1l0-0.4h0
	l0,0.4h0C48.9,52.3,49.8,51.4,49.8,50.3"/>
<path class="st0" d="M56,50.3c0-0.6-0.2-1.1-0.6-1.5c-0.4-0.4-0.9-0.6-1.5-0.6c-0.5,0-1.1,0.2-1.5,0.6c-0.4,0.4-0.6,0.9-0.6,1.5
	c0,1.1,0.9,2.1,2.1,2.1l0-0.4c0,0,0,0,0,0l0,0.4h0C55,52.3,56,51.4,56,50.3"/>
<path class="st0" d="M49.3,43.9c-0.4,0.4-0.6,0.9-0.6,1.5c0,1.1,1,2.1,2.1,2.1h0h0c1.1,0,2.1-1,2.1-2.1c0-0.5-0.2-1.1-0.6-1.5
	c-0.4-0.4-0.9-0.6-1.5-0.6C50.2,43.3,49.7,43.5,49.3,43.9"/>
<path class="st0" d="M57,53c-1.2,0-2.1,0.9-2.1,2.1c0,0.6,0.2,1.1,0.6,1.5c0.4,0.4,0.9,0.6,1.5,0.6h0c0.6,0,1.1-0.2,1.5-0.6
	c0.4-0.4,0.6-0.9,0.6-1.5C59.1,54,58.1,53,57,53"/>
<path class="st0" d="M94.8,83.8c-0.5,0.8-1.1,1-2,1c-26.2,0-52.4,0-78.7,0c-1.5,0-2.1-0.5-2.1-2.1c0-21.3,0-42.5,0-63.8
	c0-1.5,0.5-2.1,2.1-2.1c26.2,0,52.4,0,78.7,0c0.9,0,1.6,0.3,2,1v26.3c-0.8,1.1-1.8,1.3-2.6,0.7c-0.6-0.4-0.7-1-0.7-1.7
	c0-7.2,0-14.3,0-21.5c0-1.7,0.2-1.5-1.5-1.5c-24.5,0-48.9,0-73.4,0c-1.3,0-1.3,0-1.3,1.3c0,14.2,0,28.5,0,42.7c0,1.1,0,1.1,1.1,1.1
	c24.7,0,49.3,0,74,0c1.1,0,1.1,0,1.1-1.1c0-1.9,0-3.8,0-5.7c0-1.2,0.3-1.8,1.1-2c0.8-0.3,1.5,0,2.2,0.9V83.8z M53.5,68.7
	c-12.4,0-24.7,0-37.1,0c-0.8,0-1,0.2-1,1c0,3.6,0,7.3,0,10.9c0,0.7,0.2,1,1,1c24.8,0,49.5,0,74.3,0c0.8,0,0.9-0.3,0.9-1
	c0-3.6,0-7.2,0-10.7c0-1.1,0-1.1-1.1-1.1C78.1,68.7,65.8,68.7,53.5,68.7"/>
<path class="st0" d="M94.8,51.5c-0.3,0.5-0.7,0.9-1.4,1c-0.8,0.1-1.6-0.3-1.8-1.1c-0.3-0.7,0-1.6,0.7-2c0.7-0.4,1.6-0.3,2.1,0.3
	c0.1,0.2,0.3,0.3,0.4,0.5V51.5z"/>
<path class="st0" d="M32,76.8c-3.7,0-7.5,0-11.2,0c-0.3,0-0.5,0-0.8,0c-0.9-0.1-1.4-0.8-1.4-1.7c0-0.8,0.6-1.5,1.4-1.6
	c0.2,0,0.4,0,0.6,0c7.7,0,15.3,0,23,0c0.2,0,0.5,0,0.7,0.1c0.8,0.2,1.3,1,1.2,1.8c-0.1,0.8-0.7,1.4-1.7,1.4c-2,0-4.1,0-6.1,0
	C35.7,76.8,33.9,76.8,32,76.8"/>
<path class="st0" d="M75,73.4c3.8,0,7.6,0,11.5,0c0.8,0,1.4,0.2,1.7,0.9c0.5,1.1-0.1,2.3-1.3,2.4c-0.2,0-0.3,0-0.5,0
	c-7.7,0-15.3,0-23,0c-1.1,0-1.7-0.4-1.9-1.3c-0.3-1.1,0.5-2.1,1.7-2.1c2.5,0,5.1,0,7.6,0C72.2,73.4,73.6,73.4,75,73.4"/>
<path class="st0" d="M51.9,75.1c0,0.6,0,1.1,0,1.7c-0.1,1-0.7,1.6-1.7,1.6c-0.9,0-1.6-0.7-1.6-1.6c0-1.1,0-2.2,0-3.3
	c0-1,0.7-1.6,1.6-1.6c1,0,1.7,0.6,1.7,1.7C51.9,74,51.9,74.5,51.9,75.1C51.9,75.1,51.9,75.1,51.9,75.1"/>
<path class="st0" d="M58.4,75.1c0,0.6,0,1.1,0,1.7c0,1-0.7,1.6-1.7,1.6c-0.9,0-1.6-0.6-1.7-1.6c0-1.1,0-2.3,0-3.4
	c0-0.9,0.7-1.5,1.6-1.6c0.9,0,1.6,0.6,1.7,1.6C58.4,73.9,58.4,74.5,58.4,75.1"/>
<path class="st0" d="M75.6,57.3c0,0.6,0,1.1,0,1.7c-0.1,1-0.7,1.6-1.7,1.6c-0.9,0-1.6-0.7-1.6-1.6c0-1.1,0-30.6,0-31.7
	c0-1,0.7-1.6,1.6-1.6c1,0,1.7,0.6,1.7,1.7C75.6,27.7,75.6,56.7,75.6,57.3C75.6,57.3,75.6,57.3,75.6,57.3"/>
<path class="st0" d="M82.9,57.3c0,0.6,0,1.1,0,1.7c0,1-0.7,1.6-1.7,1.6c-0.9,0-1.6-0.6-1.7-1.6c0-1.1,0-30.7,0-31.8
	c0-0.9,0.7-1.5,1.6-1.6c0.9,0,1.6,0.6,1.7,1.6C82.9,27.7,82.9,56.7,82.9,57.3"/>
</svg>
