<?xml version="1.0" encoding="utf-8"?>
<!-- Generator: Adobe Illustrator 22.0.2, SVG Export Plug-In . SVG Version: 6.00 Build 0)  -->
<svg version="1.1" id="Layer_1" xmlns="http://www.w3.org/2000/svg" xmlns:xlink="http://www.w3.org/1999/xlink" x="0px" y="0px"
	 viewBox="0 0 42 42" style="enable-background:new 0 0 42 42;" xml:space="preserve">
<style type="text/css">
	.st0{fill:#D3D3D3;}
</style>
<path class="st0" d="M36.8,21.2c-0.3,0.7-0.8,1-1.6,1c-5.2,0-10.4,0-15.6,0c-0.3,0-0.5,0.1-0.6,0.4c-0.7,1.7-2,2.7-3.8,2.8
	c-1.8,0.1-3.2-0.7-4.2-2.2c-0.1-0.2-0.3-0.5-0.3-0.7c-0.1-0.2-0.2-0.3-0.5-0.3c-1,0-2,0-2.9,0c-0.7,0-1.3-0.4-1.4-1
	c-0.2-0.7,0.3-1.5,1-1.6c0.5-0.1,1,0,1.4,0c0.6,0,1.2,0,1.8,0c0.3,0,0.4-0.1,0.5-0.4c0.6-1.5,1.7-2.4,3.3-2.8
	c2.1-0.5,4.3,0.7,5.1,2.7c0.1,0.3,0.3,0.4,0.6,0.4c5.2,0,10.4,0,15.6,0c0.7,0,1.3,0.3,1.6,1V21.2z M13,20.9c0,1,0.8,1.9,1.9,1.9
	c1,0,1.9-0.9,1.9-1.9c0-1-0.9-1.9-1.9-1.9C13.8,19,13,19.8,13,20.9"/>
<path class="st0" d="M36.8,31.5c-0.3,0.7-0.7,1-1.5,1c-1,0-1.9,0-2.9,0c-0.2,0-0.4,0.1-0.5,0.3c-0.8,1.8-2.2,2.9-4.1,2.9
	c-1.8,0.1-3.5-1.1-4.2-2.8c-0.2-0.5-0.1-0.5-0.7-0.5c-5.2,0-10.5,0-15.7,0c-0.7,0-1.2-0.3-1.4-0.9c-0.3-0.8,0.3-1.7,1.2-1.8
	c0.1,0,0.3,0,0.4,0c5.2,0,10.4,0,15.6,0c0.3,0,0.5-0.1,0.6-0.4c0.7-1.6,1.9-2.6,3.7-2.8c1.9-0.2,3.3,0.6,4.3,2.2
	c0.1,0.2,0.3,0.5,0.4,0.7c0.1,0.2,0.2,0.3,0.4,0.3c1,0,1.9,0,2.9,0c0.7,0,1.3,0.3,1.5,1V31.5z M27.8,33.1c1.1,0,1.9-0.8,1.9-1.9
	c0-1-0.8-1.9-1.9-1.9c-1,0-1.9,0.9-1.9,1.9C25.9,32.2,26.7,33.1,27.8,33.1"/>
<path class="st0" d="M36.8,10.9c-0.3,0.7-0.8,1-1.5,1c-1,0-1.9,0-2.9,0c-0.2,0-0.3,0.1-0.4,0.3c-0.6,1.6-1.8,2.6-3.5,2.9
	c-1.7,0.3-3.6-0.6-4.5-2.1c-0.1-0.3-0.3-0.5-0.4-0.8c-0.1-0.3-0.2-0.3-0.5-0.3c-2.3,0-4.6,0-7,0c-3,0-5.9,0-8.9,0
	c-0.6,0-1.1-0.2-1.4-0.8c-0.4-0.9,0.2-1.8,1.2-1.8c1.2,0,2.3,0,3.5,0c4.2,0,8.3,0,12.5,0c0.3,0,0.4-0.1,0.5-0.4
	c0.7-1.7,2.3-2.9,4.1-2.9c1.8,0,3.6,1.2,4.2,2.8c0.2,0.5,0.1,0.4,0.7,0.4c0.9,0,1.8,0,2.7,0c0.8,0,1.2,0.2,1.5,1V10.9z M29.7,10.5
	c0-1.1-0.8-1.9-1.9-1.9c-1.1,0-1.9,0.8-1.9,1.9c0,1,0.9,1.9,1.9,1.9C28.8,12.4,29.7,11.6,29.7,10.5"/>
</svg>
