<?xml version="1.0" encoding="utf-8"?>
<!-- Generator: Adobe Illustrator 22.0.2, SVG Export Plug-In . SVG Version: 6.00 Build 0)  -->
<svg version="1.1" id="Layer_1" xmlns="http://www.w3.org/2000/svg" xmlns:xlink="http://www.w3.org/1999/xlink" x="0px" y="0px"
	 viewBox="0 0 104 104" style="enable-background:new 0 0 104 104;" xml:space="preserve">
<style type="text/css">
	.st0{fill:#D3D3D3;}
</style>
<path class="st0" d="M88.5,60.9l-3-16.6c0,0,0,0,0-0.1L84,36.1c-0.1-0.7-0.8-1.3-1.5-1.3H64.1c0.8-1.7,1.2-3.5,1.2-5.3
	c0-6.7-5.5-12.2-12.2-12.2c-6.7,0-12.2,5.5-12.2,12.2c0,1.9,0.4,3.7,1.2,5.3H23.8c-0.7,0-1.4,0.5-1.5,1.3l-3,16.5c0,0,0,0,0,0.1
	l-1.5,8.3c-0.1,0.4,0,0.9,0.3,1.3c0.3,0.4,0.7,0.6,1.2,0.6h2.5v1.7c0,2.7,2.2,4.8,4.8,4.8h4.5c0.9,0,1.5-0.7,1.5-1.5
	c0-0.9-0.7-1.5-1.5-1.5h-4.5c-1,0-1.7-0.8-1.7-1.7v-1.7h56.6v1.7c0,1-0.8,1.7-1.7,1.7H45c-0.9,0-1.5,0.7-1.5,1.5
	c0,0.9,0.7,1.5,1.5,1.5h3v6.3h-3.3c-2.7,0-4.9,2.2-4.9,4.9v1.8H33c-0.9,0-1.5,0.7-1.5,1.5c0,0.9,0.7,1.5,1.5,1.5h40.2
	c0.9,0,1.5-0.7,1.5-1.5c0-0.9-0.7-1.5-1.5-1.5h-6.7v-1.8c0-2.7-2.2-4.9-4.9-4.9h-3.3v-6.3h21.4c2.7,0,4.8-2.2,4.8-4.8v-1.7H87
	c0.5,0,0.9-0.2,1.2-0.6C88.5,61.8,88.6,61.4,88.5,60.9z M51,69.3h4.2v6.3H51V69.3z M61.7,78.7c1,0,1.8,0.8,1.8,1.8v1.8H42.8v-1.8
	c0-1,0.8-1.8,1.8-1.8H61.7z M67.2,51.4H54.7v-5.2h11.8L67.2,51.4z M65.3,37.9l0.7,5.2H54.7v-5.2H65.3z M53.1,20.4
	c5,0,9.1,4.1,9.1,9.1c0,1.9-0.6,3.8-1.7,5.3H45.7c-1.1-1.5-1.7-3.4-1.7-5.3C44,24.5,48.1,20.4,53.1,20.4z M34.8,59.7H21.1l0.9-5.2
	h13.5L34.8,59.7z M36,51.4H22.6l0.9-5.2h13.1L36,51.4z M37.1,43.1h-13l0.9-5.2h12.8L37.1,43.1z M51.6,59.7H37.9l0.7-5.2h13V59.7z
	 M51.6,51.4H39.1l0.7-5.2h11.8V51.4z M51.6,43.1H40.2l0.7-5.2h10.7V43.1z M54.7,59.7v-5.2h13l0.7,5.2H54.7z M68.5,37.9h12.8l0.9,5.2
	h-13L68.5,37.9z M69.6,46.2h13.1l0.9,5.2H70.3L69.6,46.2z M71.5,59.7l-0.7-5.2h13.5l0.9,5.2H71.5z"/>
</svg>
