<svg width="264" height="132" viewBox="0 0 264 132" fill="none" xmlns="http://www.w3.org/2000/svg">
<path d="M0 131.883C0 95.4636 14.7624 62.492 38.6298 38.6258L85.2587 85.2547C73.3242 97.1874 65.9422 113.673 65.9415 131.883H0Z" fill="#5EA0EF"/>
<path d="M38.6229 38.6273C64.3752 12.8751 98.128 -0.000702483 131.88 2.87456e-08L131.88 65.9443C113.672 65.9449 97.1869 73.3258 85.2543 85.2588L38.6229 38.6273Z" fill="#7DC183"/>
<path d="M131.883 0.00256604C168.302 0.00256604 201.274 14.765 225.14 38.6324L178.512 85.2602C166.579 73.3258 150.093 65.9441 131.883 65.9441L131.883 0.00256604Z" fill="#EFD35B"/>
<path d="M225.139 38.6252C250.891 64.3778 263.767 98.131 263.766 131.884H197.824C197.824 113.674 190.442 97.1886 178.508 85.2558L225.139 38.6252Z" fill="#F78B66"/>
<path fill-rule="evenodd" clip-rule="evenodd" d="M38.624 114.93C49.0292 114.93 57.4644 106.495 57.4644 96.0895C57.4644 85.6842 49.0292 77.2491 38.624 77.2491C28.2187 77.2491 19.7836 85.6842 19.7836 96.0895C19.7836 106.495 28.2187 114.93 38.624 114.93ZM46.1611 102.788C46.1611 106.95 42.787 110.324 38.6249 110.324C34.4628 110.324 31.0888 106.95 31.0888 102.788H46.1611ZM43.2303 96.2244C43.2289 96.1797 43.2282 96.1347 43.2282 96.0896C43.2282 93.7773 45.1027 91.9029 47.415 91.9029C49.7272 91.9029 51.6016 93.7772 51.6017 96.0894H50.3463C50.3463 94.4708 49.0342 93.1586 47.4156 93.1586C45.797 93.1586 44.4849 94.4707 44.4849 96.0893L43.2303 96.0894V96.2244ZM29.8305 91.9025C27.5182 91.9025 25.6437 93.7769 25.6437 96.0892H26.9004C26.9004 94.4706 28.2125 93.1583 29.8311 93.1583C31.4497 93.1583 32.7618 94.4704 32.7618 96.089L34.0172 96.0892C34.0172 93.7769 32.1428 91.9025 29.8305 91.9025Z" fill="white"/>
<path fill-rule="evenodd" clip-rule="evenodd" d="M95.1439 61.2342C105.549 61.2342 113.984 52.7991 113.984 42.3939C113.984 31.9886 105.549 23.5535 95.1439 23.5535C84.7386 23.5535 76.3035 31.9886 76.3035 42.3939C76.3035 52.7991 84.7386 61.2342 95.1439 61.2342ZM87.6053 46.9999C87.6053 46.9768 87.6054 46.9538 87.6056 46.9308L87.6053 46.9999L88.8619 46.9996C88.8619 50.4681 91.6737 53.2802 95.1421 53.2802C98.6105 53.2802 101.422 50.4684 101.422 47L102.678 46.9996C102.678 51.1617 99.3036 54.536 95.1415 54.536C90.9794 54.536 87.6053 51.162 87.6053 46.9999ZM88.4448 40.7195C88.4448 41.6444 87.695 42.3942 86.7701 42.3942C85.8452 42.3942 85.0954 41.6444 85.0954 40.7195C85.0954 39.7946 85.8452 39.0448 86.7701 39.0448C87.695 39.0448 88.4448 39.7946 88.4448 40.7195ZM103.517 42.3942C104.442 42.3942 105.191 41.6444 105.191 40.7195C105.191 39.7946 104.442 39.0448 103.517 39.0448C102.592 39.0448 101.842 39.7946 101.842 40.7195C101.842 41.6444 102.592 42.3942 103.517 42.3942Z" fill="white"/>
<path fill-rule="evenodd" clip-rule="evenodd" d="M168.621 61.2342C179.027 61.2342 187.462 52.7991 187.462 42.3939C187.462 31.9886 179.027 23.5535 168.621 23.5535C158.216 23.5535 149.781 31.9886 149.781 42.3939C149.781 52.7991 158.216 61.2342 168.621 61.2342ZM168.62 46.9999C172.782 46.9999 176.156 50.3738 176.156 54.5358H174.901C174.901 51.0674 172.089 48.2557 168.621 48.2557C165.152 48.2557 162.341 51.0674 162.341 54.5358H161.084V54.6163C161.084 54.5895 161.084 54.5626 161.084 54.5358C161.084 50.3737 164.457 46.9998 168.62 46.9999ZM181.602 38.1788C181.602 38.1884 181.602 38.198 181.602 38.2077C181.602 40.5199 179.728 42.3944 177.415 42.3944C175.103 42.3944 173.229 40.52 173.229 38.2078H174.484C174.484 39.8264 175.796 41.1387 177.415 41.1387C179.033 41.1387 180.345 39.8266 180.345 38.208L181.602 38.2077L181.602 38.1471C181.602 38.1577 181.602 38.1682 181.602 38.1788ZM164.017 38.2078L162.76 38.2078C162.76 39.8264 161.448 41.1388 159.829 41.1388C158.21 41.1388 156.898 39.8266 156.898 38.208L155.643 38.2078C155.643 40.5201 157.518 42.3945 159.83 42.3945C162.142 42.3945 164.017 40.5201 164.017 38.2078Z" fill="white"/>
<path fill-rule="evenodd" clip-rule="evenodd" d="M224.767 114.93C235.172 114.93 243.607 106.495 243.607 96.0895C243.607 85.6842 235.172 77.2491 224.767 77.2491C214.362 77.2491 205.927 85.6842 205.927 96.0895C205.927 106.495 214.362 114.93 224.767 114.93ZM224.766 100.695C228.928 100.695 232.302 104.069 232.302 108.231L217.23 108.231C217.23 104.069 220.604 100.695 224.766 100.695ZM213.042 90.8957L213.67 89.808L218.752 92.7419C219.072 92.7711 219.322 93.04 219.322 93.3673C219.322 93.6595 219.122 93.905 218.852 93.9752L213.67 96.9668L213.042 95.8791L217.358 93.3875L213.042 90.8957ZM235.863 96.9679L236.491 95.8801L232.175 93.3884L236.491 90.8968L235.863 89.809L230.68 92.8011C230.41 92.8711 230.21 93.1168 230.21 93.409C230.21 93.737 230.462 94.0063 230.782 94.0346L235.863 96.9679Z" fill="white"/>
</svg>
