<?xml version="1.0" encoding="utf-8"?>
<!-- Generator: Adobe Illustrator 22.0.2, SVG Export Plug-In . SVG Version: 6.00 Build 0)  -->
<svg version="1.1" id="Layer_1" xmlns="http://www.w3.org/2000/svg" xmlns:xlink="http://www.w3.org/1999/xlink" x="0px" y="0px"
	 viewBox="0 0 104 104" style="enable-background:new 0 0 104 104;" xml:space="preserve">
<style type="text/css">
	.st0{fill:#D3D3D3;}
</style>
<path class="st0" d="M90.9,26.2c-1,2.4-1.9,4.7-2.9,7.1c-0.7,1.9-1.8,3.5-3.4,4.7c-0.5,0.4-0.6,0.7-0.6,1.3c0,3.7,0,7.4,0,11.2
	c0,0.3,0,0.5,0,0.8c-0.1,0.6-0.5,1-1.1,1c-0.6,0-1-0.3-1.2-0.9c-0.1-0.3-0.1-0.6-0.1-0.9c0-3.3,0-6.7,0-10c0-0.7-0.2-0.8-0.8-0.6
	c-1,0.3-2.1,0.3-3.1,0.3c-16.4,0-32.7,0-49.1,0c-1.1,0-2.3-0.1-3.4-0.4c-0.5-0.1-0.6,0-0.6,0.5c0,4.3-0.2,8.5,0.1,12.8
	c0.5,7.5,3.7,13.9,9.3,18.9c0.1,0,0.1,0.1,0.3,0.2c0.3-1.7,0.6-3.3,0.9-4.9c0.5-2.7,1-5.4,1.5-8.1c1.4-7,7.5-12.4,14.5-13.2
	c8.4-0.9,16.7,4.8,18.3,13.9c0.7,3.9,1.4,7.7,2.1,11.6c0,0.2,0,0.6,0.2,0.7c0.3,0.1,0.5-0.2,0.6-0.4c4.4-4,7.3-9,8.5-14.9
	c0-0.2,0.1-0.4,0.1-0.6c0.2-0.7,0.8-1.1,1.4-1c0.7,0.1,1.1,0.8,0.9,1.5c-0.4,2.4-1.1,4.7-2.2,6.9c-4.7,9.7-12.4,15.5-23.1,17.2
	c-3,0.5-6,0.4-9.1,0.2c-0.2,0-0.5-0.1-0.7-0.1c-0.6-0.2-0.9-0.6-0.8-1.2c0.1-0.6,0.5-1,1.1-1c0.5,0,1,0.1,1.5,0.1
	c4.6,0.2,9.1,0,13.4-1.6c1.9-0.7,3.8-1.7,5.5-2.8c0.4-0.3,0.6-0.6,0.5-1.1c-0.8-4.5-1.6-9-2.5-13.5C65.8,53,59.8,48.2,53,48.2
	c-6.8,0-12.7,4.9-14,11.5c-0.9,4.5-1.6,9-2.5,13.4c-0.1,0.5,0,0.8,0.4,1.1c1.9,1.3,4,2.3,6.2,3c0.3,0.1,0.5,0.2,0.8,0.3
	c0.8,0.3,1.1,0.9,0.9,1.6c-0.2,0.6-0.8,0.9-1.7,0.6c-5-1.6-9.2-4.3-12.8-8.1c-4.8-5.1-7.5-11.1-8-18.1c-0.3-4.6-0.1-9.3-0.1-14
	c0-0.8-0.2-1.3-0.9-1.8c-1.5-1.1-2.5-2.7-3.2-4.4c-0.9-2.4-1.9-4.8-2.9-7.2v-2.1c1.1-2.5,2.2-3.3,5-3.3c21.9,0,43.8,0,65.7,0
	c2.8,0,3.9,0.7,5,3.3V26.2z M53.1,23.2c-11,0-22,0-32.9,0c-0.3,0-0.6,0-0.9,0c-0.8,0-1.3,0.5-1.6,1.2c-0.3,0.8-0.2,1,0.7,1
	c2.1,0,4.2,0,6.3,0c0.6,0,1.2,0,1.8,0c0.7,0,1.2,0.5,1.2,1.1c0,0.6-0.4,1.1-1.1,1.2c-0.3,0-0.6,0-0.9,0c-2.1,0-4.2,0-6.3,0
	c-0.8,0-0.9,0-0.5,0.8c0.5,1.2,1,2.4,1.4,3.6c1.5,3.8,4.1,5.6,8.1,5.6c12.7,0,25.5,0,38.2,0c3.9,0,7.9,0,11.8,0
	c3.3,0,6.2-2.1,7.3-5.1c0.5-1.2,1-2.5,1.5-3.7c0.5-1.2,0.5-1.2-0.8-1.2c-17.9,0-35.8,0-53.7,0c-0.4,0-0.9,0-1.3-0.1
	c-0.6-0.2-0.9-0.6-0.9-1.2c0-0.6,0.4-1,1-1.1c0.3,0,0.6,0,1,0c18.2,0,36.5,0,54.7,0c0.2,0,0.5,0,0.7,0c0.5,0,0.7-0.2,0.6-0.7
	c-0.2-0.9-0.9-1.4-2.1-1.4C75.3,23.2,64.2,23.2,53.1,23.2"/>
<path class="st0" d="M53,75.6c-6.4,0-11.5-4.7-12.1-11c-0.5-5.3,2.6-10.3,7.1-12.2c0.8-0.3,1.5-0.2,1.8,0.4c0.3,0.7,0,1.3-0.8,1.7
	c-3.9,1.9-5.8,5-5.8,9.3c0,4.7,3.9,8.8,8.6,9.3c5.9,0.7,11-4.2,10.7-10.2c-0.2-4.7-3.7-8.4-8.4-9.1c0,0,0,0-0.1,0
	c-0.9-0.1-1.4-0.7-1.3-1.4c0.1-0.8,0.7-1.2,1.7-1c2,0.3,3.9,1,5.6,2.2c4,3.2,5.7,7.3,4.7,12.3c-1,4.9-4.2,8.1-9.1,9.3
	C54.6,75.5,53.8,75.6,53,75.6"/>
<path class="st0" d="M52.8,69.1c-3.3-0.1-5.6-2.7-5.5-6.1c0.1-2.8,2.8-5.3,5.6-5.3c3.2,0.1,5.6,2.7,5.5,6
	C58.4,66.7,55.7,69.2,52.8,69.1 M56.1,63.5c0-1.9-1.3-3.3-3.1-3.3c-1.8,0-3.3,1.4-3.3,3.3c0,1.7,1.5,3.3,3.2,3.3
	C54.6,66.8,56,65.4,56.1,63.5"/>
<path class="st0" d="M69.4,36.1c-1.9,0-3.4-1.5-3.3-3.5c0-1.9,1.5-3.3,3.4-3.3c1.9,0,3.4,1.5,3.3,3.5C72.8,34.7,71.3,36.1,69.4,36.1
	 M70.4,32.8c0-0.5-0.5-1.1-1-1c-0.5,0-1,0.5-1,1c0,0.5,0.5,1,1.1,1C70,33.7,70.4,33.3,70.4,32.8"/>
<path class="st0" d="M74.9,32.7c0-1.9,1.5-3.3,3.5-3.3c1.9,0,3.3,1.5,3.3,3.4c0,1.9-1.5,3.3-3.5,3.3C76.3,36.1,74.9,34.6,74.9,32.7
	 M79.3,32.7c0-0.5-0.5-1-1-1c-0.5,0-1,0.5-1,1.1c0,0.5,0.5,1,1.1,1C78.9,33.7,79.3,33.2,79.3,32.7"/>
</svg>
