<?xml version="1.0" encoding="UTF-8"?><svg id="_레이어_1" xmlns="http://www.w3.org/2000/svg" viewBox="0 0 40 40"><defs><style>.cls-1{fill:#d3d3d3;}</style></defs><path class="cls-1" d="m21.91,19.95l8.77-9.86c.48-.54.42-1.36-.14-1.83-.56-.47-1.41-.4-1.89.14l-8.5,9.56-8.5-9.56c-.48-.54-1.33-.6-1.89-.14-.56.47-.62,1.28-.14,1.83l8.77,9.86-8.77,9.86c-.48.54-.42,1.36.14,1.83.25.21.56.31.87.31.38,0,.75-.15,1.02-.45l8.5-9.56,8.5,9.56c.26.3.64.45,1.02.45.31,0,.62-.1.87-.31.56-.47.62-1.28.14-1.83l-8.77-9.86Z"/></svg>