<?xml version="1.0" encoding="utf-8"?>
<!-- Generator: Adobe Illustrator 22.0.2, SVG Export Plug-In . SVG Version: 6.00 Build 0)  -->
<svg version="1.1" id="Layer_1" xmlns="http://www.w3.org/2000/svg" xmlns:xlink="http://www.w3.org/1999/xlink" x="0px" y="0px"
	 viewBox="0 0 104 104" style="enable-background:new 0 0 104 104;" xml:space="preserve">
<style type="text/css">
	.st0{fill:#D3D3D3;}
</style>
<path class="st0" d="M95.3,27.5c0-3.1-2.4-5.5-5.5-5.5c-12.1,0.1-24.2,0-36.2,0c-12.1,0-24.3,0-36.4,0c-3.3,0-5.4,2-5.4,5.4
	c0,15.9,0,31.9,0,47.8c0,2.3,1.4,4.2,3.4,5h76.8c2-0.8,3.4-2.7,3.4-5.1C95.2,59.3,95.2,43.4,95.3,27.5 M93.2,74.8
	c0,2.6-1.1,3.7-3.6,3.7c-12,0-24,0-36,0c-12,0-23.9,0-35.9,0c-2.7,0-3.7-1.1-3.7-3.7c0-15.6,0-31.3,0-46.9c0-2.6,1.1-3.7,3.7-3.7
	c24,0,47.9,0,71.9,0c2.6,0,3.7,1.1,3.7,3.7C93.2,43.5,93.2,59.1,93.2,74.8"/>
<path class="st0" d="M89.5,26c-24,0-48,0-72,0c-1.6,0-1.8,0.2-1.8,1.8c0,14.4,0,28.7,0,43.1c0,1.6,0.2,1.8,1.8,1.8
	c12,0,23.9,0,35.9,0c12,0,24,0,36.1,0c1.6,0,1.8-0.2,1.8-1.8c0-14.4,0-28.7,0-43.1C91.3,26.2,91.1,26,89.5,26 M88.2,70.6
	c-11.6,0-23.1,0-34.7,0c-11.5,0-23,0-34.5,0c-1.1,0-1.1,0-1.1-1.1c0-13.4,0-26.9,0-40.3c0-1.1,0-1.1,1.1-1.1c23.1,0,46.2,0,69.3,0
	c0.8,0,1.1,0.2,1.1,1c0,13.5,0,27,0,40.5C89.3,70.4,89,70.6,88.2,70.6"/>
<path class="st0" d="M77.2,74.5c-0.9,0-1.9,0-2.8,0c-0.6,0-0.9,0.4-0.9,1c0,0.6,0.3,1,0.9,1c0.5,0,0.9,0,1.4,0c0.5,0,0.9,0,1.4,0
	c0.6-0.1,0.9-0.4,0.9-1C78.2,75,77.8,74.6,77.2,74.5"/>
<path class="st0" d="M83.7,74.5c-0.4,0-0.9,0-1.3,0c-0.5,0-0.9,0-1.4,0c-0.6,0-1,0.4-1,1c0,0.7,0.4,1,1,1.1c0.9,0,1.8,0,2.7,0
	c0.6,0,1-0.4,1-1C84.7,74.9,84.4,74.6,83.7,74.5"/>
<path class="st0" d="M90.4,74.5c-0.5,0-0.9,0-1.4,0c-0.5,0-0.9,0-1.4,0c-0.6,0-1,0.4-1,1c0,0.6,0.3,1,0.9,1c0.9,0,1.9,0,2.8,0
	c0.6,0,1-0.4,1-1C91.3,75,91,74.6,90.4,74.5"/>
<path class="st0" d="M39.1,31.2c-9.9,0.1-18,8.1-18.1,17.9c-0.1,10.1,8.2,18.4,18.1,18.3c10,0,18-8,18.1-17.9
	C57.3,39.5,49.1,31.2,39.1,31.2 M39,65.3c-9.3-0.1-16-7.5-15.8-16.1c0.1-9.1,7.3-15.8,16-15.8c9.2,0,15.9,7.2,16,16
	C54.9,58.7,47.7,65.4,39,65.3"/>
<path class="st0" d="M84.7,60.1c-3.3,0-6.6,0-9.9,0c-1,0-1.3,0.3-1.3,1.3c0,1.6,0,3.1,0,4.7c0,1,0.3,1.3,1.3,1.3c1.6,0,3.3,0,4.9,0
	c1.7,0,3.3,0,5,0c1,0,1.3-0.3,1.3-1.3c0-1.6,0-3.1,0-4.7C86.1,60.4,85.7,60.1,84.7,60.1 M81.7,65.3c-1.7,0-3.5,0-5.2,0
	c-0.6,0-0.9-0.1-0.9-0.8c0-2.4,0-2.4,2.3-2.4h2c1.1,0,2.2,0,3.3,0c0.5,0,0.8,0.1,0.8,0.7C84.1,65.3,84.1,65.3,81.7,65.3"/>
<path class="st0" d="M61.2,38.5c0.3,0.1,0.5,0,0.8,0c7.5,0,15,0,22.4,0c0.3,0,0.6,0,0.8,0c0.5-0.1,0.8-0.5,0.8-1
	c0-0.5-0.3-0.9-0.8-1c-0.3-0.1-0.5,0-0.8,0c-3.7,0-7.4,0-11.1,0c-3.8,0-7.5,0-11.3,0c-0.3,0-0.6,0-0.8,0c-0.5,0.1-0.8,0.5-0.8,1
	C60.4,38.1,60.7,38.4,61.2,38.5"/>
<path class="st0" d="M61.1,49c0.3,0.1,0.6,0.1,0.9,0.1c3.7,0,7.4,0,11.1,0c3.7,0,7.5,0,11.2,0c0.3,0,0.6,0,0.8,0
	c0.5-0.1,0.8-0.4,0.8-1c0-0.6-0.3-0.9-0.8-1c-0.3-0.1-0.5,0-0.8,0c-7.5,0-14.9,0-22.4,0c-0.3,0-0.6,0-0.9,0
	c-0.5,0.1-0.7,0.5-0.8,0.9C60.4,48.5,60.6,48.9,61.1,49"/>
<path class="st0" d="M85.3,54.3c0.5-0.1,0.8-0.5,0.8-1c0-0.5-0.3-0.9-0.8-1c-0.3-0.1-0.5,0-0.8,0c-7.5,0-15,0-22.4,0
	c-0.3,0-0.6,0-0.8,0c-0.5,0.1-0.8,0.5-0.8,1c0,0.5,0.3,0.9,0.8,1c0.3,0.1,0.5,0,0.8,0c3.7,0,7.4,0,11.1,0c3.8,0,7.5,0,11.3,0
	C84.7,54.3,85,54.3,85.3,54.3"/>
<path class="st0" d="M61.2,33.3c0.3,0.1,0.5,0,0.8,0c7.5,0,15,0,22.4,0c0.3,0,0.6,0,0.8,0c0.5-0.1,0.8-0.5,0.8-1
	c0-0.5-0.3-0.9-0.8-1c-0.3-0.1-0.5,0-0.8,0c-3.7,0-7.4,0-11.1,0c-3.8,0-7.5,0-11.3,0c-0.3,0-0.6,0-0.8,0c-0.5,0.1-0.8,0.5-0.8,1
	C60.4,32.8,60.7,33.2,61.2,33.3"/>
<path class="st0" d="M61.2,43.8c0.3,0.1,0.5,0,0.8,0c3.7,0,7.5,0,11.2,0s7.5,0,11.2,0c0.3,0,0.6,0,0.8,0c0.5-0.1,0.8-0.5,0.8-1
	c0-0.5-0.3-0.9-0.8-1c-0.3-0.1-0.5,0-0.8,0c-7.5,0-15,0-22.4,0c-0.3,0-0.6,0-0.8,0c-0.5,0.1-0.8,0.5-0.8,1
	C60.4,43.3,60.7,43.7,61.2,43.8"/>
<path class="st0" d="M42.8,56.2c-0.6-0.1-0.7-0.3-0.7-0.8c0-1.4,0-2.7,0-4.1c0-1.3,0-2.5,0-3.8c0-0.1,0-0.1,0-0.2
	c0-1.7-1.3-2.9-2.9-3c-0.6,0-1.3,0-1.9,0c-1.5,0-2.6,0.8-3,2.1c-0.4,1.3,0,2.7,1.3,3.5c0.4,0.3,0.6,0.6,0.6,1.1c0,1.4,0,2.9,0,4.3
	c0,0.6-0.1,0.8-0.8,0.9c-1.6,0.2-2.6,1.6-2.5,3.3c0.1,1.5,1.4,2.7,2.9,2.7c2.2,0,4.5,0,6.7,0c1.6,0,2.9-1.2,2.9-2.7
	C45.5,57.8,44.4,56.4,42.8,56.2 M42.3,60.1c-0.7,0-1.4,0-2.1,0c-1.2,0-2.4,0-3.6,0c-1,0-1.6-0.3-1.6-0.9c0-0.6,0.5-0.9,1.5-0.9
	c0.2,0,0.4,0,0.6,0c0.7,0,1.1-0.4,1.1-1.1c0-2.6,0-5.1,0-7.7c0-0.6-0.3-1-0.9-1.1c-0.6-0.1-1.1-0.4-1-1c0.1-0.7,0.6-0.9,1.3-0.9
	c2.3-0.1,2.5,0.1,2.5,2.4v3.6c0,1.5,0,3,0,4.5c0,1,0.3,1.3,1.3,1.3c0.3,0,0.6,0,0.9,0c0.5,0.1,1,0.3,1,0.9
	C43.3,59.7,42.8,60,42.3,60.1"/>
<path class="st0" d="M39.1,42.5c1.7,0,3-1.3,3-3c0-1.7-1.3-3-3-3c-1.7,0-3,1.3-3,3C36.1,41.2,37.4,42.5,39.1,42.5 M39.1,38.6
	c0.5,0.1,0.9,0.4,0.9,0.9c0,0.5-0.3,0.8-0.8,0.8c-0.5,0-0.9-0.3-0.9-0.9C38.2,39,38.6,38.7,39.1,38.6"/>
</svg>
