<?xml version="1.0" encoding="utf-8"?>
<!-- Generator: Adobe Illustrator 22.0.2, SVG Export Plug-In . SVG Version: 6.00 Build 0)  -->
<svg version="1.1" id="Layer_1" xmlns="http://www.w3.org/2000/svg" xmlns:xlink="http://www.w3.org/1999/xlink" x="0px" y="0px"
	 viewBox="0 0 104 104" style="enable-background:new 0 0 104 104;" xml:space="preserve">
<style type="text/css">
	.st0{fill:#D3D3D3;}
</style>
<path class="st0" d="M15.3,54.5c0-9.4,0-18.9,0-28.3c0-1.5,0.3-1.8,1.9-1.8c1.3,0,2.6,0,3.9,0c1.1,0,1.5,0.4,1.5,1.5
	c0,0.7,0.4,0.5,0.8,0.4c4.9-1.1,9.8-2.2,14.7-3.3c1.4-0.3,2.8-0.6,4.3-0.9c1.4-0.3,2,0.2,2,1.5c0,1.6,0,3.3,0,4.9
	c0,0.5,0.2,0.7,0.7,0.7c1.9,0,3.8,0,5.7,0c0.6,0,0.7-0.2,0.7-0.8c0-1.3,0.4-1.7,1.7-1.7c9.5,0,19,0,28.5,0c1,0,1,0,1.1-1
	c0-0.9,0.4-1.4,1.4-1.4c1.5,0,3.1,0,4.6,0c0.9,0,1.3,0.5,1.4,1.4c0,0.2,0,0.4,0,0.5c0,18.8,0,37.7,0,56.5c0,1.6-0.3,1.9-1.9,1.9
	c-1.3,0-2.6,0-3.8,0c-1.1,0-1.6-0.4-1.5-1.5c0-0.7-0.2-0.9-0.9-0.9c-9.5,0-19,0-28.5,0c-1.6,0-1.8-0.2-1.9-1.8
	c0-0.4-0.2-0.6-0.6-0.6c-2,0-3.9,0-5.9,0c-0.5,0-0.7,0.2-0.6,0.7c0,1.6,0,3.3,0,4.9c0,1.4-0.6,1.9-1.9,1.6c-6-1.3-12.1-2.7-18.1-4
	c-0.2,0-0.4-0.1-0.6-0.1c-0.9-0.2-0.9-0.2-1,0.7c-0.1,0.7-0.5,1.1-1.2,1.1c-1.6,0-3.3,0-4.9,0c-0.7,0-1.1-0.5-1.2-1.2
	c0-0.3,0-0.6,0-0.8C15.3,73.3,15.3,63.9,15.3,54.5 M82.7,54.6c0-8.1,0-16.2,0-24.3c0-1,0-1-1-1c-8.9,0-17.9,0-26.8,0c-1,0-1,0-1,1
	c0,16.2,0,32.4,0,48.5c0,1,0,1,1,1c8.9,0,17.9,0,26.8,0c1,0,1,0,1-1C82.7,70.7,82.7,62.6,82.7,54.6 M41.8,54.5c0-9.6,0-19.3,0-28.9
	c0-0.6-0.1-0.8-0.8-0.7c-5.8,1.3-11.6,2.6-17.4,3.9c-0.7,0.2-1,0.4-1,1.2c0,16.3,0,32.6,0,48.9c0,0.8,0.2,1.1,1,1.2
	c5.8,1.3,11.6,2.5,17.3,3.8c0.9,0.2,0.9,0.2,0.9-0.7C41.8,73.8,41.8,64.1,41.8,54.5 M51.4,54.6c0-7.3,0-14.6,0-22c0-0.8-0.2-1-1-1
	c-1.7,0.1-3.4,0-5.1,0c-1,0-1,0-1,1c0,6.2,0,12.5,0,18.7c0,8.3,0,16.6,0,25c0,0.8,0.2,1,1,1c1.7-0.1,3.4,0,5,0c1.1,0,1.1,0,1.1-1.1
	C51.4,69.1,51.4,61.8,51.4,54.6 M20.1,54.5V36.9c0-3.1,0-6.1,0-9.2c0-0.3,0.1-0.7-0.2-0.8c-0.6-0.2-1.3-0.2-1.9,0
	c-0.4,0.1-0.2,0.7-0.2,1c0,17.7,0,35.4,0,53.1c0,0.2,0,0.3,0,0.5c0,0.4,0.1,0.7,0.6,0.6c0.2,0,0.5,0,0.7,0c1,0,1,0,1-1
	C20.1,72.3,20.1,63.4,20.1,54.5 M87.5,54.6c0-4.1,0-8.2,0-12.3c0-4.9,0-9.7,0-14.6c0-0.3,0.1-0.7-0.2-0.8c-0.6-0.2-1.3-0.2-1.9,0
	c-0.4,0.1-0.2,0.6-0.2,0.9c0,17.8,0,35.5,0,53.3c0,0.2,0,0.3,0,0.5c0,0.4,0.2,0.6,0.6,0.6c0.2,0,0.4,0,0.5,0c1.2,0,1.2,0,1.2-1.2
	C87.5,72.2,87.5,63.4,87.5,54.6"/>
<path class="st0" d="M51.8,13.5c2.9,0,4.7,0.6,6.2,1.9c0.7,0.6,0.9,1.4,0.4,2c-0.5,0.6-1.3,0.6-2,0c-2.4-1.9-5.1-1.9-7.6,0
	c-0.7,0.6-1.5,0.5-2,0c-0.5-0.6-0.3-1.4,0.4-2C48.7,14.2,50.6,13.5,51.8,13.5"/>
<path class="st0" d="M52.7,17.1c1.2,0,2.2,0.3,3.1,1.1c0.7,0.5,0.8,1.3,0.4,1.9c-0.4,0.6-1.2,0.7-1.9,0.2c-1.1-0.7-2.1-0.7-3.1,0
	c-0.7,0.5-1.4,0.4-1.9-0.2c-0.4-0.6-0.3-1.3,0.4-1.9C50.5,17.5,51.5,17.1,52.7,17.1"/>
<path class="st0" d="M52.6,20.8c0.7,0,1.3,0.5,1.3,1.3c0,0.7-0.5,1.2-1.2,1.2c-0.7,0-1.3-0.5-1.3-1.3C51.4,21.3,51.9,20.8,52.6,20.8
	"/>
<path class="st0" d="M55,54.5c0-2.3,0-4.6,0-6.8c0-1.2,0.4-1.6,1.6-1.6c2.2,0,4.4,0,6.5,0c1.2,0,1.6,0.4,1.6,1.6c0,0.9,0,1.8,0,2.6
	c0,0.5,0.2,0.6,0.6,0.6c0.9,0,1.9,0,2.8,0c0.9,0,1.4,0.5,1.4,1.3c0,0.7-0.5,1.2-1.4,1.2c-0.9,0-1.8,0-2.6,0c-0.6,0-0.8,0.2-0.8,0.8
	c0,2.4,0,4.8,0,7.2c0,1.3-0.4,1.6-1.7,1.7c-2.2,0-4.3,0-6.5,0c-1.2,0-1.6-0.4-1.6-1.6C55,59.1,55,56.8,55,54.5 M57.5,54.5
	c0,1.8,0,3.6,0,5.3c0,0.5,0.2,0.7,0.7,0.7c1.2,0,2.3,0,3.5,0c0.5,0,0.6-0.2,0.6-0.6c0-2,0-3.9,0-5.9c0-0.5-0.2-0.7-0.7-0.6
	c-0.6,0-1.2,0-1.7,0c-0.7,0-1.2-0.6-1.2-1.3s0.5-1.2,1.2-1.2c0.3,0,0.6,0,0.8,0c1.7,0,1.5,0.3,1.6-1.6c0-0.5-0.1-0.8-0.7-0.8
	c-1.1,0-2.2,0-3.2,0c-0.6,0-0.8,0.2-0.8,0.8C57.6,51.1,57.5,52.8,57.5,54.5"/>
<path class="st0" d="M40.7,54.6c0,1.9,0,3.8,0,5.7c0,1-0.4,1.5-1.2,1.5c-0.8,0-1.3-0.5-1.3-1.5c0-3.8,0-7.7,0-11.5
	c0-1,0.4-1.5,1.2-1.5c0.8,0,1.3,0.5,1.3,1.5C40.7,50.7,40.7,52.6,40.7,54.6"/>
</svg>
