<?xml version="1.0" encoding="utf-8"?>
<!-- Generator: Adobe Illustrator 22.0.2, SVG Export Plug-In . SVG Version: 6.00 Build 0)  -->
<svg version="1.1" id="Layer_1" xmlns="http://www.w3.org/2000/svg" xmlns:xlink="http://www.w3.org/1999/xlink" x="0px" y="0px"
	 viewBox="0 0 104 104" style="enable-background:new 0 0 104 104;" xml:space="preserve">
<style type="text/css">
	.st0{fill:#D3D3D3;}
</style>
<path class="st0" d="M68.9,55c0,7.9,0,15.9,0,23.8c0,1-0.2,1.9-0.9,2.5c-0.3,0.3-0.3,0.6-0.3,0.9c0,1.1,0,2.2,0,3.3
	c0,1-0.4,1.5-1.5,1.5c-8.7,0-17.5,0-26.2,0c-1.1,0-1.5-0.4-1.5-1.5c0-0.7,0-1.3,0-2c0-1,0.1-2-0.8-2.9c-0.5-0.5-0.5-1.2-0.5-1.9
	c0-9.4,0-18.8,0-28.1c0-6.5,0-13,0-19.5c0-2.4,1.3-3.7,3.7-3.7c8.1,0,16.2,0,24.3,0c2.3,0,3.7,1.3,3.7,3.7
	C68.9,39.2,68.9,47.1,68.9,55 M39.8,55c0,7.8,0,15.6,0,23.4c0,1.3,0.1,1.4,1.4,1.4c8,0,15.9,0,23.9,0c1.2,0,1.3-0.1,1.3-1.3
	c0-15.6,0-31.1,0-46.7c0-1.3-0.3-1.6-1.6-1.6c-7.8,0-15.6,0-23.3,0c-1.4,0-1.6,0.2-1.6,1.6C39.8,39.5,39.8,47.2,39.8,55 M53.2,82.2
	c-3.8,0-7.6,0-11.4,0c-0.6,0-0.9,0.2-0.8,0.8c0,0.1,0,0.2,0,0.2c0,1.4-0.1,1.3,1.2,1.3c7.2,0,14.3,0,21.5,0c1.6,0,1.4,0.2,1.4-1.4
	c0-0.8-0.3-0.9-1-0.9C60.5,82.3,56.9,82.2,53.2,82.2"/>
<path class="st0" d="M78.3,70c1.7,0,3.4,0,5.2,0c3.5,0,6.1,2.7,6.1,6.2c0,3.4-2.7,6-6.1,6c-2.3,0-4-1-5.2-2.9
	c-0.4-0.7-0.3-1.4,0.3-1.8c0.6-0.4,1.3-0.2,1.8,0.4c0.1,0.2,0.2,0.3,0.4,0.5c1,1.1,2.2,1.5,3.7,1.2c1.4-0.4,2.2-1.3,2.5-2.7
	c0.5-2.4-1.2-4.3-3.8-4.3c-3.3,0-6.6,0-9.9,0c-0.2,0-0.5,0-0.7,0c-0.8-0.1-1.2-0.6-1.2-1.3c0-0.7,0.5-1.2,1.2-1.2
	C74.4,70,76.4,70,78.3,70L78.3,70z"/>
<path class="st0" d="M78.3,62.8c-1.9,0-3.7,0-5.6,0c-0.9,0-1.5-0.5-1.5-1.2c0-0.8,0.5-1.3,1.5-1.3c3.3,0,6.7,0,10,0
	c0.6,0,1.3-0.1,1.9-0.3c1.4-0.5,2.3-1.8,2.3-3.3c0-1.5-0.9-2.8-2.3-3.3c-1.4-0.5-3-0.1-4,1.1c-0.1,0.2-0.3,0.4-0.4,0.6
	c-0.5,0.6-1.2,0.7-1.8,0.3c-0.6-0.4-0.8-1.1-0.4-1.7c1-1.7,2.5-2.7,4.5-3c3.4-0.4,6.3,1.8,6.9,5.1c0.5,3.3-1.6,6.4-4.9,7
	c-1.5,0.3-3,0.1-4.5,0.1C79.5,62.9,78.9,62.8,78.3,62.8"/>
<path class="st0" d="M27.9,62.8c-1.7,0-3.5,0-5.2,0c-3.3,0-6-2.8-6-6.2c0-3.3,2.7-6,6-6.1c2.3,0,4.1,1,5.3,2.9
	c0.4,0.5,0.4,1.1,0,1.6c-0.4,0.5-0.9,0.5-1.4,0.4c-0.4-0.1-0.6-0.5-0.9-0.9c-1.6-2.1-4.9-1.8-6,0.6c-1.2,2.5,0.6,5.1,3.5,5.1
	c3.2,0,6.5,0,9.7,0c0.3,0,0.5,0,0.8,0c0.9,0,1.4,0.5,1.4,1.3c0,0.8-0.5,1.2-1.4,1.2C31.6,62.8,29.7,62.8,27.9,62.8"/>
<path class="st0" d="M27.9,70c1.7,0,3.5,0,5.2,0c1.2,0,1.8,0.4,1.8,1.2c0,0.9-0.6,1.3-1.8,1.3c-3.3,0-6.7,0-10,0
	c-2.1,0-3.5,1.1-3.8,3c-0.3,1.6,0.5,3.1,2,3.8c1.5,0.7,3.2,0.3,4.3-1c0.1-0.2,0.3-0.4,0.4-0.6c0.5-0.6,1.2-0.7,1.8-0.3
	c0.6,0.4,0.8,1.1,0.4,1.7c-1,1.7-2.5,2.7-4.5,3c-3.3,0.4-6.3-1.9-6.9-5.1c-0.5-3.3,1.6-6.4,4.9-7c1.3-0.2,2.6-0.1,3.9-0.1
	C26.3,70,27.1,70,27.9,70"/>
<path class="st0" d="M56.7,20.7c0-1,0-1.9,0-2.9c0-1.5,0.9-2.8,2.4-3.4c1.4-0.5,3-0.2,4,0.9c1,1.1,1.3,2.7,0.7,4
	c-0.4,0.9-1.1,1.2-1.8,0.9c-0.7-0.3-0.9-0.9-0.6-1.8c0.2-0.5,0.2-1-0.2-1.4c-0.3-0.3-0.7-0.4-1.1-0.2c-0.6,0.2-0.8,0.7-0.8,1.3
	c0,1.9,0,3.8,0,5.8c0,0.6-0.3,1.1-0.9,1.3c-0.5,0.2-1,0-1.4-0.4c-0.2-0.3-0.3-0.6-0.3-0.9C56.7,22.8,56.7,21.7,56.7,20.7"/>
<path class="st0" d="M49.5,20.8c0,1,0,2.1,0,3.1c0,0.9-0.5,1.4-1.3,1.4c-0.7,0-1.2-0.5-1.2-1.3c0-1.8,0-3.6,0-5.4c0-0.3,0-0.7-0.1-1
	c-0.3-0.6-0.8-0.8-1.4-0.6c-0.6,0.2-0.9,0.7-0.7,1.3c0,0.2,0.1,0.4,0.2,0.6c0.1,0.7-0.2,1.3-0.8,1.5c-0.6,0.2-1.2,0-1.6-0.7
	c-1.3-2.2,0.3-5.2,2.9-5.4c2.3-0.2,4.1,1.4,4.1,3.7C49.5,18.9,49.5,19.8,49.5,20.8"/>
<path class="st0" d="M82.7,67.7c-1,0-1.9,0-2.9,0c-0.8,0-1.4-0.5-1.3-1.3c0-0.7,0.5-1.2,1.3-1.2c2,0,3.9,0,5.9,0
	c0.8,0,1.3,0.5,1.3,1.2c0,0.8-0.5,1.3-1.3,1.3C84.8,67.7,83.7,67.7,82.7,67.7"/>
<path class="st0" d="M23.3,67.7c-1,0-1.9,0-2.9,0c-0.9,0-1.4-0.5-1.4-1.3c0-0.8,0.5-1.2,1.4-1.3c1.9,0,3.9,0,5.8,0
	c0.9,0,1.4,0.5,1.4,1.3c0,0.8-0.5,1.2-1.4,1.3C25.3,67.7,24.3,67.7,23.3,67.7"/>
<path class="st0" d="M51.8,17.3c0-0.6,0-1.2,0-1.8c0-0.8,0.5-1.3,1.3-1.3c0.7,0,1.2,0.5,1.2,1.3c0,1.2,0,2.4,0,3.6
	c0,0.8-0.5,1.3-1.3,1.3c-0.7,0-1.2-0.5-1.2-1.3C51.8,18.5,51.8,17.9,51.8,17.3"/>
<path class="st0" d="M32.4,67.7c-0.4,0-0.8,0-1.2,0c-0.7,0-1.2-0.6-1.2-1.3c0-0.7,0.5-1.2,1.2-1.2c0.9,0,1.8,0,2.6,0
	c0.7,0,1.1,0.6,1.1,1.3c0,0.7-0.5,1.2-1.2,1.2C33.3,67.7,32.9,67.7,32.4,67.7L32.4,67.7z"/>
<path class="st0" d="M73.7,67.7c-0.4,0-0.9,0-1.3,0c-0.7-0.1-1.1-0.6-1.1-1.3c0-0.7,0.5-1.2,1.2-1.2c0.9,0,1.8,0,2.6,0
	c0.7,0,1.1,0.6,1.1,1.3c0,0.7-0.5,1.2-1.2,1.2C74.6,67.7,74.1,67.7,73.7,67.7"/>
<path class="st0" d="M54.4,23.4c0,0.2,0,0.5,0,0.7c-0.1,0.7-0.6,1.2-1.2,1.2c-0.7,0-1.2-0.5-1.3-1.2c0-0.4,0-0.9,0-1.3
	c0-0.8,0.5-1.2,1.2-1.2c0.7,0,1.2,0.5,1.3,1.2C54.4,22.9,54.4,23.2,54.4,23.4L54.4,23.4z"/>
<path class="st0" d="M48.2,37.2c0-2.7,2.2-4.8,5-4.8c2.7,0,4.8,2.2,4.8,5c0,2.7-2.2,4.9-4.9,4.8C50.3,42.2,48.2,40,48.2,37.2
	 M55.4,37.2c0-1.3-1.2-2.3-2.5-2.3c-1.2,0.1-2.3,1.2-2.3,2.3c0,1.3,1.1,2.4,2.4,2.4C54.4,39.6,55.5,38.5,55.4,37.2"/>
<path class="st0" d="M59.2,56.7c0,0.7-0.5,1.3-1.3,1.3c-0.7,0-1.2-0.5-1.3-1.2c0-0.7,0.5-1.3,1.3-1.3C58.7,55.5,59.2,56,59.2,56.7"
	/>
<path class="st0" d="M54.4,66.4c0,0.7-0.5,1.3-1.3,1.3c-0.7,0-1.2-0.5-1.2-1.2c0-0.7,0.5-1.3,1.3-1.3C53.8,65.2,54.3,65.7,54.4,66.4
	"/>
<path class="st0" d="M64.1,61.6c0,0.7-0.6,1.3-1.3,1.2c-0.7,0-1.2-0.6-1.2-1.3c0-0.7,0.6-1.3,1.3-1.2C63.6,60.3,64.1,60.9,64.1,61.6
	"/>
<path class="st0" d="M53.1,55.5c0.7,0,1.3,0.5,1.3,1.3c0,0.7-0.5,1.2-1.2,1.2c-0.7,0-1.3-0.5-1.3-1.3C51.8,56,52.4,55.5,53.1,55.5"
	/>
<path class="st0" d="M51.8,61.5c0-0.7,0.6-1.2,1.3-1.2c0.7,0,1.3,0.6,1.2,1.3c0,0.7-0.6,1.2-1.3,1.2C52.3,62.8,51.8,62.3,51.8,61.5"
	/>
<path class="st0" d="M42.1,66.4c0-0.7,0.6-1.2,1.3-1.2c0.7,0,1.3,0.6,1.2,1.3c0,0.7-0.6,1.2-1.3,1.2C42.6,67.7,42.1,67.1,42.1,66.4"
	/>
<path class="st0" d="M49.5,66.4c0,0.7-0.5,1.2-1.2,1.2c-0.7,0-1.3-0.5-1.3-1.3c0-0.7,0.6-1.3,1.3-1.2C49,65.2,49.5,65.7,49.5,66.4"
	/>
<path class="st0" d="M48.2,55.5c0.7,0,1.3,0.5,1.3,1.3c0,0.7-0.5,1.2-1.2,1.2c-0.7,0-1.3-0.5-1.3-1.3C47,56,47.5,55.5,48.2,55.5"/>
<path class="st0" d="M58,65.2c0.7,0,1.3,0.6,1.2,1.3c0,0.7-0.6,1.2-1.3,1.2c-0.7,0-1.3-0.6-1.2-1.3C56.7,65.7,57.2,65.2,58,65.2"/>
<path class="st0" d="M62.8,67.7c-0.7,0-1.3-0.5-1.3-1.3c0-0.7,0.5-1.2,1.2-1.3c0.7,0,1.3,0.5,1.3,1.3C64.1,67.1,63.5,67.7,62.8,67.7
	"/>
<path class="st0" d="M49.5,61.6c0,0.7-0.5,1.3-1.3,1.3c-0.7,0-1.2-0.5-1.2-1.2c0-0.7,0.5-1.3,1.3-1.3C49,60.3,49.5,60.8,49.5,61.6"
	/>
<path class="st0" d="M44.6,56.7c0,0.7-0.5,1.3-1.3,1.3c-0.7,0-1.2-0.5-1.2-1.2c0-0.7,0.5-1.3,1.3-1.3C44.1,55.5,44.6,56,44.6,56.7"
	/>
<path class="st0" d="M43.4,70c0.7,0,1.3,0.6,1.3,1.3c0,0.7-0.6,1.2-1.3,1.2c-0.7,0-1.3-0.6-1.2-1.3C42.2,70.5,42.7,70,43.4,70"/>
<path class="st0" d="M49.5,71.3c0,0.7-0.5,1.3-1.3,1.3c-0.7,0-1.2-0.5-1.2-1.2c0-0.7,0.5-1.3,1.3-1.3C49,70,49.5,70.5,49.5,71.3"/>
<path class="st0" d="M53.1,70c0.7,0,1.3,0.6,1.3,1.3c0,0.7-0.6,1.2-1.3,1.2c-0.7,0-1.3-0.6-1.2-1.3C51.9,70.5,52.4,70,53.1,70"/>
<path class="st0" d="M58,70c0.7,0,1.3,0.6,1.3,1.3c0,0.7-0.6,1.2-1.3,1.2c-0.7,0-1.3-0.6-1.3-1.3C56.7,70.5,57.2,70,58,70"/>
<path class="st0" d="M62.8,72.5c-0.7,0-1.3-0.6-1.2-1.3c0-0.7,0.6-1.2,1.3-1.2c0.7,0,1.3,0.6,1.2,1.3C64,72,63.5,72.5,62.8,72.5"/>
<path class="st0" d="M43.4,60.3c0.7,0,1.3,0.6,1.3,1.3c0,0.7-0.6,1.2-1.3,1.2c-0.7,0-1.3-0.6-1.3-1.3C42.2,60.8,42.7,60.3,43.4,60.3
	"/>
<path class="st0" d="M44.6,76.1c0,0.7-0.6,1.3-1.3,1.3c-0.7,0-1.2-0.6-1.2-1.3c0-0.7,0.6-1.3,1.3-1.3C44.1,74.9,44.7,75.4,44.6,76.1
	"/>
<path class="st0" d="M48.3,77.4c-0.7,0-1.3-0.5-1.3-1.3c0-0.7,0.5-1.2,1.2-1.2c0.7,0,1.3,0.5,1.3,1.3C49.5,76.9,49,77.4,48.3,77.4"
	/>
<path class="st0" d="M53.1,74.9c0.7,0,1.3,0.6,1.2,1.3c0,0.7-0.6,1.2-1.3,1.2c-0.7,0-1.3-0.6-1.2-1.3C51.9,75.4,52.4,74.9,53.1,74.9
	"/>
<path class="st0" d="M57.9,74.9c0.7,0,1.3,0.5,1.3,1.3c0,0.7-0.5,1.2-1.2,1.2c-0.7,0-1.3-0.5-1.3-1.3C56.7,75.4,57.2,74.9,57.9,74.9
	"/>
<path class="st0" d="M62.8,74.9c0.7,0,1.3,0.5,1.3,1.3c0,0.7-0.5,1.2-1.2,1.2c-0.7,0-1.3-0.5-1.3-1.3C61.6,75.4,62.1,74.9,62.8,74.9
	"/>
<path class="st0" d="M64.1,56.7c0,0.7-0.6,1.3-1.3,1.2c-0.7,0-1.2-0.6-1.2-1.3c0-0.7,0.6-1.3,1.3-1.2C63.5,55.5,64.1,56,64.1,56.7"
	/>
<path class="st0" d="M57.9,62.8c-0.7,0-1.3-0.6-1.2-1.3c0-0.7,0.6-1.2,1.3-1.2c0.7,0,1.3,0.6,1.2,1.3C59.2,62.3,58.6,62.8,57.9,62.8
	"/>
</svg>
