<?xml version="1.0" encoding="utf-8"?>
<!-- Generator: Adobe Illustrator 22.0.2, SVG Export Plug-In . SVG Version: 6.00 Build 0)  -->
<svg version="1.1" id="Layer_1" xmlns="http://www.w3.org/2000/svg" xmlns:xlink="http://www.w3.org/1999/xlink" x="0px" y="0px"
	 viewBox="0 0 104 104" style="enable-background:new 0 0 104 104;" xml:space="preserve">
<style type="text/css">
	.st0{fill:#D3D3D3;}
</style>
<path class="st0" d="M53.6,46.2c12.6,0,25.2,0,37.8,0c2.9,0,3.8,0.9,3.8,3.8c0,4.7,0,9.4,0,14.1c0,0.9,0.2,1.4,1,1.9
	c1.9,1.2,2.7,3.4,2,5.5c-0.6,2.1-2.5,3.4-4.8,3.5c-2.3,0-2.2-0.3-2.2,2.2c0,3,0,6,0,9c0,1.9-0.6,2.4-2.4,2.5c-1.8,0-3.6,0-5.4,0
	c-1.6,0-2.1-0.6-2.1-2.2c0-3.4,0-6.8,0-10.1c0-1-0.2-1.4-1.3-1.4c-17.8,0-35.5,0-53.3,0c-1.1,0-1.3,0.4-1.3,1.4c0,3.3,0,6.7,0,10
	c0,1.7-0.5,2.3-2.2,2.3c-1.7,0-3.3,0-5,0c-1.8,0-2.4-0.6-2.4-2.5c0-3.3,0-6.6,0-9.9c0-1-0.3-1.4-1.3-1.3c-1.6,0.1-3-0.2-4.2-1.3
	c-2.3-2.1-2.2-5.9,0.4-7.6c0.9-0.6,1.2-1.3,1.2-2.3c0-4.6,0-9.3,0-13.9c0-2.7,1-3.6,3.7-3.6C28.3,46.2,40.9,46.2,53.6,46.2
	 M53.5,71.7c12.9,0,25.8,0,38.7,0c0.5,0,1,0,1.5,0c1-0.1,1.5-0.7,1.5-1.6c0-0.9-0.5-1.5-1.5-1.7c-0.5-0.1-1.1,0-1.6,0
	c-19.6,0-39.2,0-58.8,0c-0.5,0-1,0-1.5,0c-1-0.1-1.6-0.6-1.6-1.7c0-1,0.7-1.5,1.6-1.5c0.5,0,1,0,1.5,0c18.7,0,37.4,0,56.1,0
	c0.3,0,0.7,0,1,0c1.6,0,1.6,0,1.6-1.6c0-0.8,0-1.6,0-2.4c0-1.7,0-1.7-1.8-1.7c-24.5,0-49.1,0-73.6,0c-0.2,0-0.3,0-0.5,0
	c-0.9-0.1-1.4,0.2-1.3,1.2c0.1,1.1,0.1,2.2,0,3.3c-0.1,1,0.4,1.3,1.3,1.2c1.7,0,3.3,0,5,0c1,0,1.7,0.5,1.9,1.5
	c0.1,0.9-0.7,1.6-1.8,1.7c-0.4,0-0.7,0-1.1,0c-2.1,0-4.2,0-6.4,0c-1.2,0-2,0.7-2,1.7c0,1,0.8,1.6,2,1.7c0.4,0,0.9,0,1.3,0
	C28,71.7,40.7,71.7,53.5,71.7 M53.6,56H69c7.1,0,14.3,0,21.4,0c1.7,0,1.7,0,1.7-1.8c0-1,0-2,0-2.9c0-1.9,0-1.9-1.9-1.9
	c-24.4,0-48.9,0-73.3,0c-0.3,0-0.6,0-0.9,0c-0.8-0.1-1.1,0.3-1.1,1.1c0,1.3,0,2.5,0,3.8c0,1.7,0,1.7,1.7,1.7C29,56,41.3,56,53.6,56
	 M22.4,80.2c0-1.1,0-2.2,0-3.3c0-2,0-2-2-2c-1,0-1.3,0.4-1.3,1.3c0.1,2.6,0.1,5.1,0,7.7c0,1.1,0.3,1.5,1.4,1.4c0.3,0,0.6,0,0.9,0
	c0.8,0.1,1.1-0.3,1.1-1.1C22.3,82.9,22.4,81.6,22.4,80.2 M88,80.2c0-1.3,0-2.7,0-4c0-1-0.4-1.3-1.3-1.2c-0.2,0-0.5,0-0.7,0
	c-1.1-0.1-1.4,0.3-1.4,1.4c0.1,2.5,0.1,5.1,0,7.6c0,1.2,0.4,1.6,1.5,1.4c0.2,0,0.5,0,0.7,0c0.9,0.1,1.2-0.4,1.2-1.2
	C87.9,82.8,88,81.5,88,80.2"/>
<path class="st0" d="M65.1,13.2c0.7,0,1.2,0.4,1.5,1c0.3,0.6,0.1,1.3-0.4,1.8c-0.6,0.6-1.2,1.3-1.7,2c-1.3,2.4-0.9,4.7,0.7,6.8
	C66,26,67,27,67.8,28.1c1.2,1.7,2,3.5,2.2,5.5c0.1,1.9-0.5,3.6-1.6,5.2c-0.6,0.9-1.4,1.6-2.3,2.3c-0.9,0.6-1.9,0.5-2.4-0.3
	c-0.6-0.8-0.4-1.7,0.5-2.4c1.1-0.9,2.1-1.9,2.4-3.3c0.4-1.6-0.1-3.1-0.9-4.4c-0.6-1-1.5-1.9-2.3-2.8c-1.3-1.5-2.3-3.1-2.8-5.1
	c-0.6-2.4-0.1-4.6,1.1-6.6c0.6-0.9,1.2-1.8,2.1-2.5C64.2,13.4,64.6,13.2,65.1,13.2"/>
<path class="st0" d="M45.8,34c-0.1,3.2-1.6,5.5-4.1,7.3c-0.8,0.5-1.7,0.3-2.3-0.4c-0.5-0.7-0.3-1.7,0.4-2.2c0.9-0.7,1.8-1.5,2.2-2.6
	c0.6-1.2,0.5-2.5,0.1-3.8c-0.6-1.7-1.8-3-3-4.4c-1.3-1.4-2.3-3-2.7-4.9c-0.6-2.4-0.2-4.7,1.1-6.8c0.6-0.9,1.2-1.7,2-2.4
	c0.8-0.7,1.8-0.7,2.4,0c0.6,0.7,0.5,1.7-0.3,2.4c-1.5,1.4-2.5,3.1-2.3,5.3c0.1,1.3,0.7,2.4,1.4,3.4c0.8,1.1,1.8,2,2.5,3
	c1.1,1.5,1.9,3,2.2,4.9C45.8,33.2,45.8,33.6,45.8,34"/>
<path class="st0" d="M57.9,34.1c-0.1,3.1-1.6,5.4-4.1,7.1c-0.8,0.5-1.7,0.3-2.2-0.4c-0.5-0.8-0.4-1.7,0.4-2.3
	c0.9-0.7,1.7-1.4,2.2-2.4c0.8-1.6,0.6-3.2-0.2-4.8c-0.7-1.4-1.9-2.6-2.9-3.8c-1.6-1.9-2.7-3.9-2.7-6.4c-0.1-2.5,0.9-4.7,2.5-6.5
	c0.3-0.3,0.6-0.6,1-1c0.7-0.7,1.7-0.6,2.3,0c0.6,0.7,0.6,1.7-0.1,2.3c-0.7,0.7-1.3,1.4-1.8,2.3c-0.9,1.8-0.8,3.5,0.1,5.3
	C52.9,25,54,26,55,27.1c1.4,1.7,2.5,3.6,2.9,5.8C57.9,33.3,57.9,33.7,57.9,34.1"/>
</svg>
