<?xml version="1.0" encoding="utf-8"?>
<!-- Generator: Adobe Illustrator 22.0.2, SVG Export Plug-In . SVG Version: 6.00 Build 0)  -->
<svg version="1.1" id="Layer_1" xmlns="http://www.w3.org/2000/svg" xmlns:xlink="http://www.w3.org/1999/xlink" x="0px" y="0px"
	 viewBox="0 0 104 104" style="enable-background:new 0 0 104 104;" xml:space="preserve">
<style type="text/css">
	.st0{fill:#D3D3D3;}
</style>
<path class="st0" d="M85.7,48.3c0.4,0.3,0.6,0.8,0.8,1.2c2.2,5,4.5,9.9,6.6,14.9c0.8,1.8,0.5,3.7-0.1,5.5c-1.1,3.5-3.6,5.7-7.2,6.3
	c-0.5,0.1-0.8,0.3-1,0.7c-1.4,2.7-2.9,5.3-4.4,8c-0.2,0.4-0.2,0.6,0.3,0.8c0.7,0.2,1.2,0.8,1.1,1.4c-0.1,0.7-0.6,1.1-1.4,1.1
	c-1.7,0-3.5,0-5.2,0c-0.8,0-1.3-0.5-1.3-1.2c0-0.7,0.4-1.2,1.2-1.3c0.2,0,0.3-0.1,0.5-0.1c1.3,0.3,1.9-0.5,2.4-1.5
	c1.2-2.4,2.5-4.7,3.8-7.1c0.3-0.6,0.3-0.9-0.4-1.1c-1.9-0.6-3.4-1.7-4.6-3.4c-0.3-0.5-0.5-0.4-0.8,0c-3.8,5.2-11,5.2-14.9,0.1
	c-0.4-0.5-0.5-0.5-0.9,0c-3.9,5.1-10.9,5.1-14.8,0c-0.4-0.5-0.5-0.5-0.9,0c-3.9,5.1-11,5.1-14.9-0.1c-0.3-0.4-0.5-0.5-0.8,0
	c-1.2,1.7-2.7,2.8-4.6,3.4c-0.6,0.2-0.7,0.4-0.4,1c1.5,2.7,2.9,5.4,4.4,8.1c0.2,0.4,0.5,0.6,1,0.6c0.5,0,1,0,1.5,0.1
	c0.7,0.1,1,0.6,1,1.3c0,0.7-0.5,1.2-1.2,1.2c-1.8,0-3.7,0-5.6,0c-0.7,0-1.2-0.5-1.2-1.2c0-0.7,0.3-1.2,1-1.3
	c0.7-0.1,0.6-0.4,0.4-0.9c-1.4-2.6-2.9-5.2-4.3-7.9c-0.2-0.4-0.6-0.7-1.1-0.7c-4.3-0.7-7.5-4.4-7.7-8.7c-0.1-1.5,0.1-2.9,0.8-4.4
	c2.1-4.5,4.1-9.1,6.1-13.6c0.2-0.5,0.5-0.9,0.8-1.3h30.6c0.6,0.4,0.9,1,0.6,1.7c-0.3,0.7-0.8,0.8-1.5,0.8c-0.9,0-1.8,0-2.7,0
	c-0.6,0-0.8,0.2-0.8,0.7c0,3.9,0,7.8,0,11.7c0,0.5,0.2,0.7,0.7,0.7c3.9,0,7.8,0,11.7,0c0.5,0,0.7-0.2,0.7-0.7c0-3.9,0-7.9,0-11.8
	c0-0.5-0.2-0.7-0.7-0.7c-0.9,0-1.8,0-2.7,0c-0.7,0-1.3-0.1-1.5-0.8c-0.3-0.7,0-1.3,0.6-1.7H85.7z M37.1,50.8c-2,0-3.9,0-5.9,0
	c-0.6,0-0.8,0.2-0.7,0.7c0,3.9,0,7.7,0,11.6c0,0.6,0.2,0.8,0.8,0.8c3.8,0,7.7,0,11.5,0c0.6,0,0.8-0.2,0.8-0.8c0-3.8,0-7.7,0-11.5
	c0-0.6-0.2-0.8-0.8-0.8C40.9,50.8,39,50.8,37.1,50.8 M75.1,57.4c0-1.9,0-3.9,0-5.8c0-0.6-0.2-0.8-0.8-0.8c-3.8,0-7.6,0-11.4,0
	c-0.7,0-0.9,0.3-0.9,0.9c0,3.8,0,7.5,0,11.3c0,0.7,0.2,0.9,0.9,0.9c3.8,0,7.6,0,11.3,0c0.7,0,0.9-0.2,0.9-0.9
	C75.1,61.2,75.1,59.3,75.1,57.4 M28,57.4c0-1.9,0-3.8,0-5.7c0-0.7-0.2-0.9-0.9-0.9c-1.6,0-3.3,0-4.9,0c-0.5,0-0.8,0.2-1,0.7
	c-1.8,4-3.5,7.9-5.3,11.8c-0.3,0.6-0.1,0.7,0.5,0.7c3.6,0,7.2,0,10.9,0c0.6,0,0.8-0.2,0.8-0.9C27.9,61.2,28,59.3,28,57.4 M77.7,57.4
	c0,1.9,0,3.8,0,5.6c0,0.7,0.2,0.9,0.9,0.9c3.6,0,7.2,0,10.8,0c0.6,0,0.8-0.1,0.5-0.7c-1.8-3.9-3.5-7.8-5.3-11.8
	c-0.2-0.5-0.5-0.7-1-0.7c-1.7,0-3.3,0-5,0c-0.6,0-0.8,0.2-0.8,0.8C77.7,53.5,77.7,55.5,77.7,57.4 M52.8,66.6h-4.7
	c-2.1,0-2.2,0.1-1.7,2.1c0.7,3.3,3.8,5.4,7.3,5c3-0.3,5.6-3.2,5.6-6.3c0-0.7-0.2-0.9-0.9-0.9C56.6,66.6,54.7,66.6,52.8,66.6
	 M21.5,66.6c-1.7,0-3.4,0-5.1,0c-1.6,0-1.7,0.1-1.4,1.7c0,0.1,0,0.2,0,0.2c0.7,3.4,3.6,5.5,7.2,5.3c3.1-0.3,5.7-3.1,5.8-6.4
	c0-0.6-0.2-0.8-0.8-0.8C25.3,66.6,23.4,66.6,21.5,66.6 M84.2,73.8c3.6,0,6.5-2.9,6.5-6.4c0-0.6-0.2-0.9-0.8-0.8c-3.8,0-7.7,0-11.5,0
	c-0.6,0-0.8,0.2-0.8,0.8C77.8,71,80.7,73.8,84.2,73.8 M37,66.6c-1.7,0-3.4,0-5.1,0c-1.8,0-1.5,0-1.4,1.5c0.2,2.9,3,6,7.1,5.7
	c3.2-0.2,5.9-3.1,5.9-6.3c0-0.7-0.2-0.9-0.9-0.9C40.8,66.6,38.9,66.6,37,66.6 M68.7,66.6c-1.9,0-3.9,0-5.8,0c-0.7,0-0.9,0.3-0.9,0.9
	c0.1,4,4,7,7.8,6.2c3.1-0.7,5.1-3.2,5.3-6.4c0-0.6-0.3-0.7-0.7-0.7C72.5,66.6,70.6,66.6,68.7,66.6"/>
<path class="st0" d="M69.7,24.4c-0.3,0-0.7-0.1-0.9-0.4c-5.2-5.4-10.8-8.1-16.8-8.2h0c-10.2,0-18.1,8.1-18.2,8.2
	c-0.5,0.5-1.3,0.5-1.9,0c-0.5-0.5-0.5-1.3,0-1.9c0.3-0.4,8.7-9,20.1-9h0c6.7,0,13,3,18.7,9c0.5,0.5,0.5,1.4,0,1.9
	C70.4,24.3,70,24.4,69.7,24.4"/>
<path class="st0" d="M66,30.2c-0.3,0-0.7-0.1-0.9-0.4c-3.9-4.1-8.2-6.1-12.6-6.1c-7.7,0-13.6,6.1-13.7,6.1c-0.5,0.5-1.3,0.5-1.9,0
	c-0.5-0.5-0.5-1.3,0-1.9c0.3-0.3,6.8-7,15.6-7c0,0,0,0,0,0c5.2,0,10.1,2.3,14.5,7c0.5,0.5,0.5,1.4,0,1.9
	C66.6,30.1,66.3,30.2,66,30.2"/>
<path class="st0" d="M60.4,34.9c-0.3,0-0.7-0.1-0.9-0.4c-2.2-2.3-4.7-3.5-7.2-3.5c-4.4,0-7.8,3.5-7.8,3.5c-0.5,0.5-1.3,0.5-1.9,0
	c-0.5-0.5-0.5-1.3,0-1.9c0.2-0.2,4.2-4.3,9.7-4.3c3.3,0,6.3,1.5,9.1,4.3c0.5,0.5,0.5,1.4,0,1.9C61,34.8,60.7,34.9,60.4,34.9"/>
<path class="st0" d="M52.3,44c-2.4,0-4.4-2-4.4-4.4c0-2.4,2-4.4,4.4-4.4c2.4,0,4.4,2,4.4,4.4C56.7,42.1,54.8,44,52.3,44 M52.3,37.9
	c-1,0-1.8,0.8-1.8,1.8c0,1,0.8,1.8,1.8,1.8c1,0,1.8-0.8,1.8-1.8C54.1,38.7,53.3,37.9,52.3,37.9"/>
</svg>
