<?xml version="1.0" encoding="utf-8"?>
<!-- Generator: Adobe Illustrator 22.0.2, SVG Export Plug-In . SVG Version: 6.00 Build 0)  -->
<svg version="1.1" id="Layer_1" xmlns="http://www.w3.org/2000/svg" xmlns:xlink="http://www.w3.org/1999/xlink" x="0px" y="0px"
	 viewBox="0 0 104 104" style="enable-background:new 0 0 104 104;" xml:space="preserve">
<style type="text/css">
	.st0{fill:#D3D3D3;}
</style>
<path class="st0" d="M53.2,85.5c-8.1,0-16.3,0-24.4,0c-2.6,0-3.6-1-3.6-3.5c0-2.1,0-4.2,0-6.3c0-2.2,1.1-3.2,3.3-3.2
	c2.6,0,2.6,0,2.6-2.5c0-7,0-14,0-20.9c0-8.2,3.3-14.7,10.1-19.3c4.2-2.8,8.8-4,13.9-3.5c6,0.6,10.9,3.2,14.9,7.7
	c2.9,3.4,4.6,7.4,5.1,11.8c0.3,2.1,0.1,4.2,0.2,6.3c0,6.4,0,12.8,0,19.2c0,1.2,0,1.2,1.2,1.2c0.5,0,1.1,0,1.6,0c1.8,0,2.9,1,2.9,2.8
	c0.1,2.5,0.1,5,0,7.5c-0.1,1.8-1.2,2.8-3.1,2.8C69.6,85.5,61.4,85.5,53.2,85.5 M72,58.9L72,58.9c0-3.9,0-7.7,0-11.6
	c-0.1-4.1-1.4-7.9-4-11c-4.7-5.7-10.8-8-18.1-6.9c-4.9,0.7-8.8,3.3-11.8,7.1c-2.7,3.4-3.9,7.4-3.9,11.7c0,7.8,0,15.5,0,23.3
	c0,0.7,0.2,0.9,0.9,0.9c3.5,0,7.1,0,10.6,0c0.6,0,0.9-0.2,0.9-0.9c0-1.3-0.2-2.7-0.3-4c-0.5-4.1-1.7-8.1-2.7-12.1
	c-0.5-1.9-1-3.8-1-5.7c0-0.8,0.1-1.5,0.9-1.8c0.8-0.3,1.4,0,2,0.6c0.2,0.2,0.5,0.5,0.7,0.7c0.5,0.7,1.1,0.7,1.8,0.2
	c1.5-1.1,3-1.1,4.5,0c0.6,0.4,1.1,0.5,1.7,0c1.3-1,2.7-1.1,4.1-0.3c1.4,0.8,1.4,0.8,2.6-0.3c0.2-0.2,0.4-0.3,0.5-0.5
	c0.5-0.5,1.1-0.7,1.7-0.4c0.6,0.3,0.9,0.8,0.9,1.5c0,0.3,0,0.7,0,1c-0.3,3.1-1.2,6-2,8.9c-1.1,4-1.9,7.9-2,12c0,0.8,0.2,1.1,1.1,1.1
	c3.4,0,6.7,0,10.1,0c0.9,0,1.1-0.3,1.1-1.2C72,67.1,72,63,72,58.9 M53.1,82.5c7.8,0,15.7,0,23.5,0c1.3,0,1.3,0,1.3-1.2
	c0-1.5,0-3,0-4.6c0-1.3,0-1.3-1.3-1.3c-6.7,0-13.5,0-20.2,0c-9,0-17.9,0-26.9,0c-0.9,0-1.2,0.2-1.2,1.1c0.1,1.6,0,3.2,0,4.8
	c0,1.2,0,1.2,1.2,1.2C37.4,82.5,45.2,82.5,53.1,82.5 M53.1,72.4c0.9,0,1.8,0,2.6,0c0.8,0,1-0.2,1.1-1c0.2-3.7,0.6-7.4,1.5-11
	c0.6-2.2,1.2-4.4,1.8-6.6c0.2-0.7,0-1.1-0.8-1c-0.9,0.1-1.8-0.2-2.5-0.8c-0.5-0.4-0.9-0.4-1.5,0c-1.5,1.1-3.2,1.1-4.7,0
	c-0.6-0.4-1-0.4-1.6,0c-0.5,0.4-1,0.5-1.6,0.7c-0.6,0.2-1.4-0.3-1.7,0.3c-0.2,0.6,0.2,1.2,0.3,1.9c0,0.1,0.1,0.3,0.1,0.4
	c1.7,5.3,2.8,10.7,2.9,16.3c0,0.6,0.2,0.8,0.8,0.7C51.1,72.4,52.1,72.4,53.1,72.4"/>
<path class="st0" d="M43.3,19c0,0.8-0.6,1.2-1.2,1.5c-2.4,1-4.7,2.2-6.7,3.8c-4.7,3.6-8.1,8.1-10.1,13.7c-0.1,0.3-0.2,0.6-0.3,0.8
	c-0.4,0.8-1.2,1.2-2,0.9c-0.8-0.3-1.1-1.1-0.8-2c0.7-2.1,1.6-4.2,2.7-6.1c3.7-6.4,9-11.1,15.9-13.9c0.3-0.1,0.6-0.2,1-0.3
	C42.6,17.5,43.3,18.1,43.3,19"/>
<path class="st0" d="M84.2,38.4c-0.1,0.6-0.3,1.2-1,1.4c-0.6,0.2-1.1,0.1-1.6-0.4c-0.3-0.3-0.5-0.8-0.6-1.2
	c-2.4-6.6-6.6-11.7-12.5-15.5c-1.4-0.9-2.9-1.6-4.4-2.2c-1-0.5-1.4-1.3-1.1-2.1c0.3-0.8,1.2-1.1,2.3-0.7c3.3,1.3,6.3,3.1,8.9,5.4
	c4.6,3.9,7.8,8.8,9.8,14.5c0.1,0.2,0.1,0.4,0.1,0.5C84.2,38.2,84.2,38.3,84.2,38.4"/>
<path class="st0" d="M62.3,22.4c0.2,0.1,0.5,0.1,0.8,0.2c5.9,2.3,10.3,6.2,13.5,11.6c1,1.7,1.8,3.4,2.4,5.2c0.3,1.1,0,1.8-0.8,2.1
	c-0.9,0.3-1.5-0.1-1.9-1.2c-1.1-2.9-2.5-5.6-4.5-8c-2.6-3.1-5.8-5.4-9.6-7c-0.3-0.1-0.6-0.2-0.9-0.4c-0.6-0.4-0.7-1-0.5-1.6
	C60.9,22.8,61.5,22.4,62.3,22.4"/>
<path class="st0" d="M45.5,24c0,0.6-0.5,1-1.1,1.3c-2.9,1.2-5.6,2.8-8,5.1c-2.8,2.7-4.9,5.9-6.3,9.5c-0.1,0.3-0.2,0.6-0.4,0.9
	c-0.4,0.8-1,1.1-1.8,0.8c-0.8-0.3-1.2-1-0.9-1.8c0.2-0.8,0.5-1.7,0.9-2.5c2.9-6.3,7.4-11.1,13.7-14.1c0.6-0.3,1.3-0.6,2-0.8
	C44.6,22.2,45.5,22.9,45.5,24"/>
</svg>
