<?xml version="1.0" encoding="utf-8"?>
<!-- Generator: Adobe Illustrator 22.0.2, SVG Export Plug-In . SVG Version: 6.00 Build 0)  -->
<svg version="1.1" id="Layer_1" xmlns="http://www.w3.org/2000/svg" xmlns:xlink="http://www.w3.org/1999/xlink" x="0px" y="0px"
	 viewBox="0 0 104 104" style="enable-background:new 0 0 104 104;" xml:space="preserve">
<style type="text/css">
	.st0{fill:#D3D3D3;}
</style>
<path class="st0" d="M88.6,38.5c-0.4,1.4-1,2.8-2.2,3.8c-1.5,1.4-3.3,1.8-5.3,1.8c-10.6,0-21.1,0-31.7,0c-8.4,0-16.9,0-25.3,0
	c-1.2,0-2.5-0.1-3.6-0.7c-1.9-0.9-3.1-2.3-3.7-4.3c-0.1-0.2-0.1-0.4-0.2-0.6V23.2c0.4-1.4,1-2.8,2.2-3.8c1.5-1.3,3.2-1.8,5.2-1.8
	c5.8,0,11.6,0,17.4,0c13.3,0,26.6,0,39.9,0c1.9,0,3.7,0.5,5.2,1.8c1.2,1,1.8,2.4,2.2,3.8V38.5z M52.6,20.2c-9.6,0-19.1,0-28.7,0
	c-3.1,0-4.9,1.8-4.9,4.9c0,3.9,0,7.8,0,11.7c0,0.6,0.1,1.2,0.2,1.7c0.5,2,2.2,3.1,4.5,3.1c19.2,0,38.4,0,57.5,0c3,0,4.8-1.8,4.8-4.8
	c0-4,0-7.9,0-11.9c0-0.7-0.1-1.5-0.4-2.1c-0.8-1.8-2.3-2.6-4.3-2.6C71.9,20.2,62.3,20.2,52.6,20.2"/>
<path class="st0" d="M46.6,74.1c0,0.5-0.4,0.8-0.8,1.2c-1,1.1-1,1.1,0,2.1c0.8,0.8,1,1.6,0.4,2.2c-0.6,0.6-1.4,0.5-2.2-0.4
	c-0.4-0.4-0.8-0.8-1.2-1.2c-0.5-0.5-1.1-0.4-1.4,0.2c-0.3,0.6-0.8,1-1.4,1.4c-0.6,0.4-0.7,0.9-0.2,1.4c0.5,0.5,1,1,1.5,1.5
	c0.6,0.6,0.6,1.4,0.1,1.9c-0.5,0.5-1.2,0.5-1.9-0.1c-0.4-0.4-0.8-1.1-1.3-1.1c-0.6,0-0.9,0.7-1.3,1.1c-0.8,0.7-1.6,0.7-2.1,0
	c-0.4-0.5-0.3-1.1,0.2-1.7c0.5-0.6,1.1-1.1,1.6-1.6c0.6-0.6,0.5-1-0.2-1.4c-0.6-0.3-1-0.8-1.3-1.3c-0.4-0.6-0.9-0.7-1.5-0.2
	c-0.5,0.5-1,1-1.5,1.5c-0.7,0.7-1.4,0.7-2,0.2c-0.5-0.5-0.4-1.3,0.2-1.9c0.4-0.5,1.2-0.8,1.2-1.4c0-0.5-0.8-0.9-1.2-1.3
	c-0.6-0.6-0.6-1.4-0.1-1.9c0.5-0.5,1.2-0.5,1.9,0.1c0.5,0.5,1,1,1.6,1.5c0.6,0.6,1,0.6,1.5-0.2c0.4-0.6,0.8-1,1.4-1.4
	c0.6-0.4,0.7-0.8,0.2-1.3c-0.5-0.5-1.1-1.1-1.6-1.6c-0.6-0.7-0.7-1.4-0.1-1.9c0.5-0.5,1.3-0.5,1.9,0.1c0.3,0.3,0.7,0.6,1,1
	c0.3,0.3,0.4,0.3,0.7,0c0.3-0.4,0.7-0.7,1-1c0.6-0.6,1.4-0.6,1.9-0.1c0.5,0.5,0.5,1.3-0.1,1.9c-0.5,0.5-1,1-1.5,1.5
	c-0.6,0.6-0.5,1.1,0.2,1.5c0.6,0.4,1,0.8,1.3,1.4c0.3,0.6,0.8,0.7,1.3,0.2c0.6-0.6,1.2-1.2,1.8-1.7c0.4-0.4,0.9-0.5,1.4-0.3
	C46.4,73.1,46.6,73.5,46.6,74.1 M39.3,76.4c0-0.6-0.5-1.1-1.2-1.1c-0.6,0-1,0.5-1,1.1c0,0.6,0.5,1.1,1.1,1.1
	C38.8,77.5,39.3,76.9,39.3,76.4"/>
<path class="st0" d="M67,82.5c-0.4,0-0.8-0.2-1.1-0.7c-0.2-0.5-0.2-0.9,0.1-1.3c0.3-0.4,0.6-0.7,1-1c0.8-0.8,0.7-0.6,0-1.3
	c-0.3-0.3-0.6-0.6-0.8-0.9c-0.5-0.5-0.5-1.2,0-1.7c0.5-0.5,1.1-0.6,1.7-0.1c0.6,0.5,1.1,1.1,1.7,1.7c0.7,0.6,1.1,0.6,1.5-0.2
	c0.3-0.5,0.8-1,1.4-1.3c0.7-0.4,0.7-0.8,0.2-1.4c-0.5-0.5-1-1-1.5-1.5c-0.6-0.7-0.7-1.4-0.2-1.9c0.5-0.6,1.3-0.5,2,0.1
	c0.4,0.4,0.8,1.2,1.3,1.1c0.5-0.1,0.9-0.7,1.3-1.1c0.5-0.4,1-0.7,1.7-0.4c0.5,0.3,0.7,0.7,0.6,1.3c0,0.3-0.2,0.6-0.5,0.8
	c-0.5,0.5-1,1-1.5,1.5c-0.5,0.6-0.5,1.1,0.2,1.5c0.6,0.4,1,0.8,1.4,1.4c0.4,0.6,0.8,0.7,1.4,0.2c0.5-0.5,1-1,1.4-1.4
	c0.8-0.8,1.5-0.8,2.1-0.3c0.6,0.6,0.5,1.3-0.3,2.1c-0.3,0.3-0.6,0.6-0.8,0.8c-0.3,0.2-0.2,0.5,0,0.7c0.3,0.3,0.6,0.6,0.9,0.9
	c0.7,0.7,0.7,1.4,0.2,2c-0.5,0.6-1.3,0.5-2-0.2c-0.5-0.5-1-1-1.4-1.4c-0.6-0.6-1.1-0.5-1.5,0.2c-0.3,0.5-0.8,1-1.3,1.3
	c-0.6,0.4-0.7,0.9-0.2,1.4c0.5,0.5,1,1,1.5,1.5c0.6,0.6,0.7,1.4,0.1,1.9c-0.5,0.5-1.2,0.5-1.9-0.1c-0.4-0.4-0.8-1.2-1.3-1.1
	c-0.5,0-0.9,0.7-1.3,1.1c-0.7,0.6-1.4,0.7-1.9,0.1c-0.5-0.5-0.5-1.3,0.1-1.9c0.5-0.5,1-1,1.5-1.5c0.6-0.6,0.5-1-0.2-1.4
	c-0.6-0.3-1-0.8-1.4-1.4c-0.3-0.6-0.9-0.7-1.4-0.2c-0.6,0.5-1.1,1-1.6,1.6C67.8,82.2,67.4,82.4,67,82.5 M75.3,78.8
	c0-0.6-0.5-1.1-1.1-1.1c-0.6,0-1,0.4-1,1.1c0,0.6,0.5,1.1,1.1,1.1C74.8,79.9,75.3,79.3,75.3,78.8"/>
<path class="st0" d="M28.4,50.3c0-0.8,0-1.6,0-2.4c0-0.2,0-0.5,0.1-0.7c0.2-0.7,0.6-1.1,1.3-1.1c0.6,0,1.2,0.4,1.2,1.1
	c0,2.6,0.4,5.2-0.3,7.7c-0.9,3-2.7,5.2-6,5.8c-2.9,0.5-6-1.3-6.7-3.9c-0.6-2,0.3-4.1,2.1-5.2c1.8-1.1,4.1-0.8,5.6,0.6
	c0.6,0.6,0.7,1.3,0.3,1.9c-0.5,0.6-1.2,0.6-1.9,0.1c-0.8-0.6-1.6-0.9-2.6-0.4c-1.3,0.7-1.4,2.5-0.3,3.4c2,1.7,5,1.1,6.4-1.4
	c0.6-1.1,0.9-2.2,0.9-3.4C28.4,51.8,28.4,51.1,28.4,50.3L28.4,50.3z"/>
<path class="st0" d="M74.2,50.3c0-0.9,0-1.8,0-2.7c0-0.9,0.5-1.5,1.2-1.5c0.8,0,1.3,0.5,1.3,1.5c0,1.6,0,3.2,0,4.8
	c0,1.6,0.5,3.1,1.6,4.3c1.4,1.7,4,2,5.7,0.6c0.9-0.7,1.1-2,0.4-2.9c-0.7-1-1.9-1.2-2.9-0.5c-0.2,0.1-0.3,0.3-0.5,0.4
	c-0.6,0.4-1.3,0.4-1.7-0.1c-0.5-0.5-0.5-1.2,0-1.7c1-1.1,2.3-1.6,3.7-1.5c2.2,0.2,3.8,1.6,4.2,3.6c0.4,2.1-0.5,4.1-2.4,5.2
	c-2.8,1.6-6,1.2-8.2-1.2c-1.6-1.7-2.4-3.7-2.5-6C74.2,52,74.2,51.2,74.2,50.3L74.2,50.3z"/>
<path class="st0" d="M39.5,51c0.1,2.7-0.1,5.4-1.1,8c-0.9,2.3-2.2,4.4-3.9,6.2c-0.6,0.6-1.4,0.7-1.9,0.2c-0.5-0.5-0.5-1.2,0.1-1.9
	c1.1-1.2,2-2.4,2.7-3.8c1.1-2.2,1.6-4.6,1.6-7.1c0-1.2,0-2.3,0-3.5c0-0.9,0.4-1.4,1.1-1.4c0.8-0.1,1.3,0.4,1.4,1.3
	C39.5,49.6,39.5,50.3,39.5,51"/>
<path class="st0" d="M68.3,51c0,2.8,0.2,5.6,1.4,8.1c0.6,1.4,1.4,2.6,2.5,3.7c0.2,0.2,0.4,0.5,0.6,0.7c0.5,0.6,0.4,1.3-0.1,1.8
	c-0.5,0.5-1.2,0.5-1.8-0.1c-0.8-0.8-1.5-1.7-2.2-2.7c-1.8-2.8-2.8-5.8-2.9-9.1c0-1.3-0.1-2.6-0.1-3.9c0-0.3,0-0.7,0.1-1
	c0.1-0.7,0.7-1,1.3-1c0.6,0,1.1,0.5,1.1,1.1C68.3,49.5,68.3,50.2,68.3,51"/>
<path class="st0" d="M47.9,60.9c0,1.9,0,3.9,0,5.8c0,1-0.9,1.6-1.8,1.2c-0.4-0.2-0.6-0.4-0.7-0.8c-0.1-0.4-0.1-0.7-0.1-1.1
	c0-3.4,0-6.9,0-10.3c0-0.3,0-0.7,0.1-1c0.1-0.7,0.7-1.1,1.3-1.1c0.7,0,1.2,0.5,1.2,1.3c0,0.9,0,1.9,0,2.8
	C47.9,58.7,47.9,59.8,47.9,60.9L47.9,60.9z"/>
<path class="st0" d="M57.4,60.8c0-1.9,0-3.8,0-5.8c0-0.9,0.6-1.5,1.4-1.4c0.6,0.1,1,0.4,1.1,0.9c0.1,0.3,0.1,0.6,0.1,1
	c0,3.6,0,7.1,0,10.7c0,0.3,0,0.5-0.1,0.8c-0.1,0.8-0.7,1.2-1.4,1.1c-0.7-0.1-1.1-0.5-1.1-1.3c0-0.9,0-1.7,0-2.6
	C57.4,63,57.4,61.9,57.4,60.8"/>
<path class="st0" d="M47.9,48.9c0,0.4,0,0.8,0,1.3c-0.1,0.7-0.6,1.1-1.2,1.2c-0.6,0-1.1-0.4-1.3-1.1c-0.1-0.9-0.2-1.8,0-2.7
	c0.1-0.7,0.7-1.2,1.3-1.1c0.6,0.1,1.1,0.6,1.2,1.3C47.9,48.1,47.9,48.5,47.9,48.9C47.9,48.9,47.9,48.9,47.9,48.9"/>
<path class="st0" d="M59.9,48.8c0,0.5,0,1-0.1,1.5c-0.1,0.6-0.7,1-1.3,1c-0.6,0-1.1-0.5-1.2-1.1c-0.1-0.9-0.1-1.8,0-2.7
	c0-0.6,0.6-1.1,1.2-1.1c0.6,0,1.1,0.3,1.2,1C60,47.8,59.9,48.3,59.9,48.8"/>
<path class="st0" d="M52.6,36.8c9.4,0,18.8,0,28.1,0c0.3,0,0.6,0,0.9,0c0.6,0.1,1,0.5,1,1.2c0,0.6-0.3,1.1-0.9,1.2
	c-0.4,0.1-0.7,0.1-1.1,0.1c-18.7,0-37.3,0-56,0c-0.4,0-0.8,0-1.1-0.1c-0.6-0.2-1-0.6-0.9-1.2c0-0.6,0.4-1,1-1.2c0.3-0.1,0.6,0,0.9,0
	C33.9,36.8,43.2,36.8,52.6,36.8"/>
<path class="st0" d="M52.7,32c9.4,0,18.7,0,28.1,0c0.3,0,0.6,0,0.9,0c0.6,0.1,1,0.6,1,1.2c0,0.6-0.4,1.1-1,1.2c-0.3,0-0.5,0-0.8,0
	c-18.8,0-37.7,0-56.5,0c-0.2,0-0.3,0-0.5,0c-0.8,0-1.3-0.6-1.3-1.3c0-0.7,0.5-1.2,1.3-1.2c0.3,0,0.5,0,0.8,0C34,32,43.3,32,52.7,32"
	/>
<path class="st0" d="M77.8,29.7c-0.8,0-1.7,0-2.5,0c-1.9,0-3.4-1.6-3.6-3.5c-0.1-1.8,1.3-3.5,3.1-3.7c2-0.2,3.9-0.2,5.9,0
	c1.8,0.2,3.2,1.8,3.1,3.7c-0.1,1.8-1.5,3.4-3.4,3.5C79.6,29.7,78.7,29.7,77.8,29.7L77.8,29.7z M77.8,27.1c0.8,0,1.6,0,2.5,0
	c0.6,0,1-0.3,1.1-1c0.1-0.6-0.3-1.1-1-1.2c-1.7-0.1-3.3-0.1-5,0c-0.6,0-1,0.5-1,1.1c0,0.6,0.4,1,1.1,1C76.2,27.2,77,27.1,77.8,27.1"
	/>
<path class="st0" d="M58.6,27.3c-0.4,0-0.8,0-1.2,0c-0.7-0.1-1.2-0.5-1.2-1.2c0-0.6,0.4-1.2,1-1.3c0.9-0.2,1.9-0.2,2.8,0
	c0.7,0.1,1.1,0.7,1.1,1.3c0,0.7-0.5,1.1-1.3,1.2C59.4,27.3,59,27.3,58.6,27.3L58.6,27.3z"/>
<path class="st0" d="M65.8,27.3c-0.4,0-0.8,0-1.3,0c-0.7-0.1-1.1-0.5-1.1-1.1c-0.1-0.7,0.3-1.2,1-1.3c0.9-0.2,1.9-0.2,2.9,0
	c0.7,0.1,1.1,0.7,1,1.3c0,0.6-0.5,1.1-1.2,1.2C66.6,27.3,66.2,27.3,65.8,27.3L65.8,27.3z"/>
</svg>
