<?xml version="1.0" encoding="utf-8"?>
<!-- Generator: Adobe Illustrator 22.0.2, SVG Export Plug-In . SVG Version: 6.00 Build 0)  -->
<svg version="1.1" id="Layer_1" xmlns="http://www.w3.org/2000/svg" xmlns:xlink="http://www.w3.org/1999/xlink" x="0px" y="0px"
	 viewBox="0 0 104 104" style="enable-background:new 0 0 104 104;" xml:space="preserve">
<style type="text/css">
	.st0{fill:#D3D3D3;}
</style>
<path class="st0" d="M52,87.2c-2.3-0.7-3.8-2.1-4.2-4.5c-0.1-0.4-0.3-0.5-0.6-0.5c-0.6,0-1.2,0-1.8-0.1c-1.4-0.2-2.4-1.3-2.5-2.7
	c0-0.3,0-0.6,0-0.9c0-1.1,0.2-2.1-0.9-2.9c-0.4-0.3-0.5-0.9-0.5-1.4c0-1.1-0.2-2.3,0.4-3.4c0.1-0.2,0-0.3,0-0.5
	c-0.6-1.8-0.9-3.6,0.5-5.3c0.2-0.2,0.2-0.4,0.2-0.7c0-1.4,0-2.7,0-4c0-1.1-0.5-2-1.5-2.6c-6.2-3.9-10-9.4-11.1-16.6
	c-1.8-11.5,5.3-22.6,16.7-26c1-0.3,2.1-0.5,3.1-0.7c0.3,0,0.6-0.1,0.8-0.1c0.6,0,1,0.3,1.1,0.9c0.1,0.6-0.2,1.1-0.8,1.2
	c-0.5,0.1-1.1,0.2-1.7,0.3c-8.7,1.5-15.8,8.8-17,17.6c-1.2,9.1,2.3,16.2,9.9,21.2c1.7,1.1,2.6,2.6,2.6,4.6c0,1.1,0,2.2,0,3.3
	c0,0.5,0.1,0.7,0.7,0.7c1,0,2,0,3,0c0.5,0,0.7-0.1,0.7-0.6c0-2.6,0-5.3,0-7.9c0-0.5-0.2-1-0.6-1.4c-2.6-3.2-2.3-3.1-2.3-7
	c0-1.5,0-2.9,0-4.4c0-0.4-0.1-0.7-0.5-0.9c-0.8-0.5-0.8-1.5,0-1.9c0.3-0.2,0.4-0.4,0.6-0.7c0.5-0.9,1.5-0.9,2,0
	c0.2,0.4,0.5,0.5,0.9,0.5c2.5,0,5.1,0,7.6,0c0.4,0,0.7-0.1,0.9-0.5c0.2-0.4,0.6-0.6,1-0.6c0.5,0,0.8,0.2,1,0.7
	c0.1,0.3,0.3,0.5,0.6,0.7c0.8,0.5,0.8,1.4,0,1.9C60.1,42.3,60,42.5,60,43c0,2.2,0,4.4,0,6.5c0,1.2-0.3,2.4-1.1,3.3
	c-1.5,1.5-2,3.3-1.8,5.4c0.1,1.8,0,3.6,0,5.4c0,0.6,0.2,0.8,0.8,0.8c0.9,0,1.9,0,2.8,0c0.6,0,0.8-0.2,0.8-0.8c0-1,0-2,0-3.1
	c-0.1-2.1,0.9-3.7,2.7-4.8c3.5-2.1,6.1-5,7.9-8.6c1.1-2.3,1.8-4.7,2.1-7.3c0.1-0.9,0.6-1.4,1.3-1.4c0.7,0.1,1.1,0.7,1,1.6
	C75.8,46,73.3,50.9,68.9,55c-1.1,1-2.2,1.9-3.5,2.6c-1.2,0.7-1.7,1.7-1.7,3.1c0,1.2,0,2.4,0,3.6c0,0.4,0.1,0.7,0.4,1
	c0.5,0.6,0.8,1.3,0.8,2.1c0,1.1,0.2,2.1-0.5,3.1c-0.2,0.2,0.1,0.4,0.1,0.7c0.5,1.3,0.4,2.6,0.1,4c-0.1,0.3-0.3,0.7-0.6,0.9
	c-0.6,0.4-0.8,1-0.7,1.7c0.1,0.5,0,1,0,1.6c0,1.5-1.1,2.8-2.6,2.8c-1.5,0-2.3,0.4-2.8,2c-0.5,1.7-2,2.6-3.7,3.1H52z M51.5,59.5
	c0,1.3,0,2.7,0,4c0,0.5,0.1,0.7,0.7,0.7c0.6,0,1.3,0,1.9,0c0.6,0,0.7-0.2,0.7-0.7c0-1.7,0-3.5,0-5.2c0-3.9-0.4-3.6,2.3-7.1
	c0.4-0.5,0.5-1,0.5-1.6c0-2.3,0-4.5,0-6.8c0-0.6-0.2-0.7-0.7-0.7c-2.5,0-5.1,0-7.6,0c-0.6,0-0.7,0.2-0.7,0.8c0,1.5,0.1,3,0,4.5
	c-0.2,2.2,0.3,4,1.9,5.6c0.8,0.8,1.1,1.9,1,3C51.5,57.2,51.5,58.4,51.5,59.5 M53.2,74.7c2.6,0,5.2,0,7.7,0c1.6,0,1.6,0,1.6-1.6
	c0-1.2-0.1-1.3-1.3-1.3c-5.2,0-10.5,0-15.7,0c-1.8,0-1.8,0-1.8,1.8c0,1,0.1,1.1,1.1,1.1C47.7,74.7,50.4,74.7,53.2,74.7 M53.2,69.4
	c2.7,0,5.3,0,8,0c1.3,0,1.3-0.1,1.4-1.4c0-0.1,0-0.1,0-0.2c0-1.2-0.1-1.3-1.3-1.3c-5.3,0-10.6,0-15.8,0c-1.7,0-1.7,0-1.7,1.7
	c0,1,0.1,1.2,1.1,1.2C47.7,69.5,50.4,69.4,53.2,69.4 M53.1,79.9c2.1,0,4.2,0,6.2,0c1.8,0,1.8,0,1.7-1.8c0-1-0.1-1.1-1.2-1.1
	c-4.3,0-8.7,0-13,0c-1.8,0-1.8,0-1.8,1.8c0,1,0.2,1.1,1.1,1.1C48.6,79.9,50.9,79.9,53.1,79.9 M53.2,82.2c-0.8,0-1.7,0-2.5,0
	c-0.5,0-0.7,0.2-0.5,0.7c0.4,1.2,1.7,2.1,3,2.1c1.3,0,2.5-0.9,3-2.1c0.2-0.5,0.1-0.7-0.5-0.7C54.8,82.2,54,82.2,53.2,82.2"/>
<path class="st0" d="M56.1,14.4c2.2,0.3,4.4,0.8,6.5,1.8c7.6,3.5,12.2,9.5,13.7,17.8c0.2,0.9-0.1,1.5-0.9,1.7
	c-0.8,0.1-1.3-0.3-1.4-1.3c-1.3-8.4-7.5-15.2-15.8-17.2c-0.8-0.2-1.7-0.3-2.5-0.5c-0.8-0.2-1.2-0.6-1.1-1.3
	C54.6,14.7,55.1,14.4,56.1,14.4"/>
<path class="st0" d="M70.8,33c0,0.6-0.3,1-0.9,1.1c-0.6,0.1-1.1-0.1-1.3-0.8c-0.4-1.4-0.9-2.7-1.7-3.9c-1.5-2.5-3.5-4.4-6.1-5.7
	c-0.1-0.1-0.3-0.1-0.4-0.2c-0.6-0.4-0.8-1-0.5-1.6c0.3-0.5,0.9-0.7,1.5-0.4c1.3,0.6,2.4,1.3,3.4,2.2c2.7,2.3,4.6,5.1,5.6,8.4
	c0.1,0.2,0.1,0.4,0.1,0.5C70.8,32.8,70.8,32.9,70.8,33"/>
<path class="st0" d="M23.8,38.2c-0.6,0-1.1,0-1.7,0c-0.7,0-1.2-0.5-1.2-1.1c0-0.6,0.4-1.2,1.1-1.2c1.2-0.1,2.5-0.1,3.7,0
	c0.7,0,1.2,0.6,1.1,1.2c0,0.6-0.5,1.1-1.3,1.1C25,38.2,24.4,38.2,23.8,38.2"/>
<path class="st0" d="M82.4,38.2c-0.6,0-1.2,0-1.8,0c-0.7,0-1.1-0.5-1.2-1.1c0-0.5,0.4-1.1,1-1.2c1.3-0.1,2.6-0.1,3.9,0
	c0.6,0.1,1.1,0.7,1,1.2c-0.1,0.6-0.5,1-1.2,1C83.6,38.3,83,38.2,82.4,38.2"/>
<path class="st0" d="M27.1,31.5c-0.1,0-0.2,0-0.4-0.1c-1.1-0.4-2.2-0.8-3.3-1.3c-0.7-0.3-1-0.9-0.7-1.5c0.3-0.6,0.9-0.8,1.6-0.6
	c1.1,0.4,2.2,0.8,3.3,1.3c0.5,0.2,0.8,0.7,0.7,1.3C28.1,31.1,27.7,31.5,27.1,31.5"/>
<path class="st0" d="M82.5,27.9c0.7,0,1.1,0.3,1.2,0.8c0.2,0.5,0,1-0.5,1.3c-1.2,0.6-2.5,1.1-3.8,1.5c-0.5,0.2-1-0.1-1.2-0.6
	c-0.3-0.5-0.1-1.1,0.3-1.3C79.8,28.8,81.2,28.4,82.5,27.9"/>
<path class="st0" d="M83.7,45.1c0,0.7-0.7,1.3-1.5,1.1c-1.2-0.4-2.4-0.9-3.6-1.4c-0.5-0.2-0.8-0.7-0.6-1.3c0.2-0.6,0.7-0.9,1.3-0.8
	c1.3,0.4,2.7,0.9,3.9,1.5C83.6,44.3,83.7,44.7,83.7,45.1"/>
<path class="st0" d="M28.3,43.8c-0.1,0.5-0.2,0.8-0.7,1c-1.2,0.5-2.3,0.9-3.5,1.3c-0.6,0.2-1.2-0.1-1.4-0.7c-0.2-0.6,0-1.2,0.7-1.4
	c1.1-0.4,2.2-0.9,3.3-1.3C27.5,42.5,28.3,43,28.3,43.8"/>
</svg>
